<svg width="173" height="409" xmlns="http://www.w3.org/2000/svg"><path d="M172.837 153.517l-.981-1.822c-.034-.067-.118-.084-.17-.135-.05-.05-.067-.135-.118-.185l-2.064-1.333c-.033-.017-.067 0-.084-.017-.034-.017-.034-.05-.068-.067l-3.959-1.552-5.363-3.206-4.432-3.711c-.017-.017-.034 0-.051-.017-.017-.017-.017-.034-.034-.034l-.034-.017-.203-2.142c0-.017-.017-.034-.017-.05 0-.018.017-.034.017-.051l-.372-1.822c-.017-.102-.102-.152-.152-.237-.051-.067-.051-.168-.102-.236l-1.945-1.822c-.085-.067-.187-.067-.271-.1-.102-.051-.17-.119-.288-.136l-8.171-.236-5.922-6.377-.44-1.839c-.017-.084-.101-.118-.135-.202-.05-.068-.034-.152-.085-.22l-6.09-6.073-.101-2.227c0-.05-.034-.067-.051-.1-.017-.035.017-.068.017-.085l-1.388-4.707-1.928-7.928-.982-11.1-.372-8.841c0-.017-.017-.017-.017-.034s.017-.017.017-.033l-.981-9.835c0-.017-.017-.017-.017-.034s.017-.034.017-.05l-.49-2.43c-.018-.05-.068-.084-.085-.118-.017-.05.017-.101-.017-.135l-2.436-4.133c-.051-.068-.119-.085-.17-.135-.05-.051-.067-.135-.135-.169l-3.519-2.058h-.017s0-.017-.017-.017l-1.404-.76h.017c.017 0 .017-.016.017-.016h.017l3.654-1.822c.119-.05.152-.169.237-.253.034-.05.101-.034.135-.084l1.354-2.312c.05-.1.017-.202.034-.303.017-.102.084-.186.067-.287l-.372-1.94c-.017-.101-.101-.152-.152-.253-.05-.085-.068-.186-.135-.253l-2.775-2.311-.203-2.16v-3.12c0-.018-.017-.035-.017-.068-.017-.102-.085-.203-.118-.287-.051-.101-.085-.203-.153-.27-.017-.017-.017-.05-.034-.05l-.66-.507.12-.033 1.894-.355c.068-.017.085-.067.135-.084.119-.05.237-.101.322-.22.067-.067.084-.117.118-.219.034-.067.085-.101.102-.168l.372-1.94c0-.034-.017-.051-.017-.085 0-.034.034-.05.034-.084V43.22l1.624-3.475c.034-.068-.017-.135.017-.22.017-.067.084-.118.068-.202l-.119-2.058c0-.101-.084-.169-.118-.27-.034-.084-.017-.152-.068-.236l-3.333-4.032-1.658-3.897-.05-.05c-.018-.018 0-.051-.018-.068l-2.673-4.386c-.017-.017-.034-.017-.05-.034-.017-.017 0-.05-.017-.067L111.88 20.7l-2.386-6.647c-.017-.034-.05-.05-.067-.085-.017-.033 0-.067-.017-.1l-2.758-4.117c-.017-.017-.034-.017-.05-.034-.018-.017 0-.034-.018-.05l-3.654-4.37c-.034-.05-.085-.034-.118-.067-.051-.034-.051-.085-.085-.118l-4.872-2.919c-.034-.017-.068 0-.102-.017-.034-.017-.05-.05-.085-.067L93.78.894c-.035-.017-.052.017-.085 0-.034 0-.051-.034-.085-.05L85.201 0c-.017 0-.034.017-.051.017-.017 0-.034-.017-.05-.017h-4.4c-.05 0-.067.034-.101.05-.05 0-.085-.033-.119-.016L76.336 1.13c-.085.017-.102.085-.17.118-.05.051-.135.034-.186.085L70.736 6.19c-.034.034-.017.068-.051.102-.034.033-.068.033-.085.067l-3.536 5.466c-.033.05-.017.101-.033.152-.034.05-.085.067-.085.118L63.19 28.19l-2.013 5.28-3.3 4.1-6.039 5.668c-.034.034-.017.068-.05.085-.035.033-.068.033-.085.067l-3.655 5.466c-.017.017 0 .05-.017.067l-.05.051-1.777 3.796-2.487 3.07c-.034.05-.017.101-.05.152-.034.05-.085.067-.102.135l-1.1 3.526c0 .017.017.034.017.05l-.744 1.046c-.017.017 0 .051-.017.068l-.051.05-4.111 8.351-5.854 10.56c-.017.018 0 .051 0 .068-.017.017-.034.017-.05.05l-4.264 11.05-4.01 10.038-4.348 7.693-3.519 5.55c-.034.051-.017.119-.034.17-.034.084-.084.117-.101.202l-.61 6.444-.845 10.088c0 .017.017.034.017.05 0 .018-.017.035-.017.051l.118 6.073v2.059c0 .05.034.067.05.1 0 .035-.033.068-.016.102l1.59 6.14-2.774 3.307v.017h-.017l-3.638 4.572-4.601 4.96c-.051.05-.034.118-.068.168-.034.051-.085.068-.118.135l-1.32 3.83-1.303 2.564-1.658 2.244c-.05.084-.034.169-.067.253-.034.084-.102.152-.102.253v4.859c0 .067.05.1.068.151.034.102.067.203.118.287a.79.79 0 0 0 .237.236c.05.034.068.102.118.118l1.455.608a.76.76 0 0 0 .339.067c.152 0 .304-.05.457-.118l2.199-1.333c.068-.05.085-.118.135-.185.034-.034.102-.034.136-.068l2.216-3.272 4.314-3.02 3.113-1.333 1.76.203 2.893.708c.033 0 .05 0 .067.017l.017.017 1.709.253c.05 0 .085.017.118.017h1.32l.964.32c.085.034.187.05.271.05h.626l.152.423a.756.756 0 0 0 .271.337c.017.017.017.05.034.067l1.336.979c.051.05.119.034.187.067.033.017.05.068.084.085l1.354.37c.084.018.152.035.236.035a.961.961 0 0 0 .305-.05l.05-.018-.608 6.917c0 .017.017.034.017.034 0 .017-.017.017-.017.034v5.955c0 .017.017.033.017.05s-.017.034-.017.05l1.1 9.347c0 .017.033.034.033.05 0 .018-.017.034-.017.051l1.827 7.288c0 .017.017.017.017.034.017.017 0 .017 0 .034l3.655 10.695 2.91 8.334 4.754 16.398 1.184 4.488.237 7.187c0 .05.05.084.05.118.018.05-.033.084-.016.118l1.895 5.668-.119 2.328-1.455 9.312c0 .017.017.034.017.034 0 .017-.017.034-.017.034l-.71 10.037-1.743 3.492c-.017.034 0 .051 0 .085-.017.034-.05.034-.05.067l-3.3 11.185c-.016.017.017.034 0 .05 0 .017-.033.034-.033.051l-2.301 13.733c0 .016.017.016.017.033s-.017.017-.017.034l-1.218 11.54c0 .016.017.016.017.033s-.017.017-.017.034l-.373 12.264c0 .017.017.017.017.034s-.017.017-.017.034l.61 16.887s.016 0 .016.017c.017-.051.017-.085.017-.085l.982 16.398c0 .017.016.017.016.034s-.016.017-.016.034l1.708 13.006c0 .017.017.034.034.05 0 .018-.017.035-.017.052l2.927 11.91c0 .017.017.017.017.033v.034l3.164 9.346c.017.051.05.068.084.102.017.033 0 .067.017.084l3.773 5.837c.034.05.102.034.135.085.068.067.085.168.17.219l3.299 1.822c.067.05.152.05.22.067.033 0 .033.034.067.034l4.754.726c.051.016.085.016.136.016h.067l3.35-.236h.085c.034 0 .085 0 .118-.017l3.3-.725c.033-.017.05-.05.084-.068.068-.033.135-.016.203-.067l3.4-2.193c.085-.05.102-.152.17-.236.034-.034.101-.034.118-.068l2.572-4.605v-.034c.017-.017.034-.017.034-.034l3.282-7.288c.017-.017-.017-.05 0-.067.017-.034.034-.034.05-.068l2.674-9.97c0-.017-.017-.034 0-.034 0-.017.017-.017.017-.033l2.199-12.754 1.573-7.744c0-.016-.017-.016 0-.033 0-.017.017-.034.017-.034l.728-5.955c0-.017-.017-.017-.017-.034s.017-.017.017-.034l.254-5.196.27-2.614h.592l7.072-.237c.034 0 .051-.033.085-.033.169-.034.321-.085.457-.22a.606.606 0 0 0 .118-.168c.05-.068.119-.118.135-.22l.762-2.615 1.86-1.231 1.591-.574c.068-.033.102-.1.17-.151.05-.034.118-.034.169-.085l1.945-2.075c.034-.05.034-.101.068-.152.05-.084.135-.151.152-.253l.203-.894h1.624v7.997c0 .017.017.017.017.034 0 .016-.017.016-.017.033l.846 13.362v.033l1.337 15.318c0 .017.017.017.017.017 0 .017-.017.017-.017.017l.609 4.37v.016l1.353 8.621c0 .017.017.017.017.034s-.017.017-.017.033l2.673 11.776c.017.017.034.034.034.05 0 .017-.017.034 0 .051l3.045 8.503c.017.067.085.101.119.152.017.034.017.084.034.101l2.673 3.155c.034.05.101.033.135.067.05.05.068.118.119.135l2.3 1.215a.913.913 0 0 0 .407.101h4.432l3.84-.236h.051c.034 0 .051-.034.085-.05.135-.035.27-.051.372-.119l2.436-1.822c.068-.05.068-.118.102-.185.034-.034.084-.017.118-.068l2.927-4.859c.017-.033 0-.067.017-.1.017-.051.068-.068.085-.119l2.199-7.895c0-.034-.017-.05-.017-.084s.034-.034.034-.068l1.218-11.91c0-.017-.017-.017-.017-.017 0-.017.017-.017.017-.034l.744-15.672.61-14.829-.017-.017.017-.016v-16.398c0-.017-.017-.017-.017-.034s.017-.017.017-.034l-1.219-17.73c0-.017-.017-.017-.017-.017v-.017l-1.455-13.446c0-.017-.016-.017-.016-.017 0-.016.016-.016 0-.033l-3.401-21.375c-.017-.016-.034-.033-.034-.05s.017-.034.017-.068l-4.145-13.968c-.017-.05-.068-.068-.085-.118-.016-.05 0-.085-.033-.135l-2.792-4.015c-.034-.051-.101-.051-.135-.085-.051-.05-.051-.1-.102-.135l-2.808-1.822h-.017l-.135-.084-.39-.962c-.033-.067-.101-.084-.135-.151-.05-.068-.034-.135-.085-.186l-1.827-1.586c-.017-.017-.05-.017-.067-.017-.017-.017-.017-.05-.051-.067l-2.927-1.822c-.017-.017-.034 0-.05-.017-.018-.017-.018-.034-.035-.034l-1.878-.894-.05-.472.169-.86.592-.675c.068-.085.068-.186.085-.287.033-.085.118-.169.118-.27v-1.215c0-.017-.017-.034-.017-.034 0-.1-.084-.185-.118-.286-.051-.102-.068-.22-.153-.304-.016-.017-.016-.034-.016-.034l-.457-.388-.186-1.737 2.233-5.011c.017-.034-.017-.067 0-.084.017-.034.05-.05.05-.085l1.219-5.955 1.336-6.444c.017-.034-.017-.05-.017-.085.017-.033.034-.05.034-.084l-.017-9.936v-.034l-.118-6.799c0-.034-.034-.05-.034-.067 0-.034.017-.05.017-.085l-2.064-10.662-1.1-9.582h5.194l4.873-.371.016-.017c.051 0 .102-.017.153-.017l5.972-1.704c.017 0 .017-.017.034-.017.034-.017.05-.017.084-.017l5.11-2.176c.017 0 .017-.017.017-.017.017-.017.033 0 .05-.017l5.127-2.8c.034-.017.034-.05.05-.05.034-.018.068-.018.085-.034l4.619-3.644c.017 0 0-.017.017-.017.017-.017.017 0 .034-.017l4.5-4.015c.017-.017.017-.05.034-.068.017-.017.05-.017.067-.033l3.655-4.387c.017-.016 0-.05.017-.067s.034-.017.05-.034l2.741-4.251 3.046-2.632.795.574a.883.883 0 0 0 .49.152h.017c.051 0 .085 0 .119-.017l1.708-.253c.051 0 .068-.05.102-.068.152-.05.27-.118.39-.22.05-.05.084-.083.118-.134a.447.447 0 0 0 .084-.101l.152-.405.88.388c.119.05.237.067.338.067.153 0 .305-.05.457-.118l2.2-1.332c.033-.017.033-.068.067-.085.034-.034.068-.017.102-.05l1.742-1.738 1.59-.911c.018 0 .018-.017.018-.034.017-.017.034 0 .05-.017l1.59-1.096c.018-.017.018-.05.035-.05.101-.085.135-.186.203-.304.05-.085.101-.152.118-.254 0-.016.017-.033.034-.05l.084-1.383 1.557-.979c.017 0 .017-.017.017-.017a.8.8 0 0 0 .338-.438l.745-2.194c0-.016-.017-.033 0-.033 0-.017.017-.017.017-.034l.609-2.547c.033-.102-.034-.203-.051-.287-.085-.017-.05-.118-.102-.22zm-3.316 3.897l.356-2.007c.084-.473-.237-.928-.694-.996a.827.827 0 0 0-.998.692l-.373 2.075c-.016.017.017.034.017.068 0 .016-.017.033-.033.05l-.119 2.784c-.017.202.085.37.186.523l-.05.624-.931.64.288-.876c.017-.068-.017-.101-.017-.169.017-.067.05-.101.05-.169l-.253-2.918c0-.017-.017-.017-.017-.017v-.017l-.254-1.822c-.068-.472-.524-.793-.981-.742a.863.863 0 0 0-.745.978l.237 1.805.237 2.716-.846 2.666-1.607 1.603-1.726 1.046-.389-.17.71-1.214 1.1-1.822c.051-.084.034-.185.051-.287.034-.1.085-.185.085-.286l-.61-3.897c-.016-.017-.033-.034-.033-.051-.017-.017.017-.034 0-.067l-.728-2.43c-.017-.034-.05-.05-.067-.067-.017-.034.017-.068-.017-.085l-.728-1.332c-.017-.034-.067-.034-.084-.068-.034-.034-.017-.084-.051-.101-.017-.017-.034-.017-.05-.017-.018-.017-.018-.034-.018-.034l-1.066-.944-.033-.034c-.085-.068-.17-.05-.254-.084-.102-.051-.203-.135-.322-.135h-1.336c-.051 0-.085.05-.136.067-.05.017-.101-.034-.152-.017l-1.353.473c-.119.05-.17.151-.271.236-.068.067-.152.084-.203.168l-.846 1.586c-.034.068 0 .135-.017.22-.017.067-.084.118-.084.202v1.99l-.17.962-1.353 1.13c-.068.051-.068.152-.119.22-.05.067-.135.101-.152.202l-.254.81-.084-.169-1.286-3.525-.22-1.637.237-2.817c.017-.085-.05-.135-.068-.22-.017-.084.017-.151-.017-.236l-.744-1.45c-.034-.068-.102-.085-.152-.135-.051-.051-.051-.135-.102-.17l-1.455-1.096c-.017-.017-.034 0-.05-.017-.017-.016-.017-.033-.034-.033l-2.657-1.586-.203-2.581.796-3.644 1.251-2.193.237-.102 2.809 1.181 1.032.574 2.571 1.45.271.17 4.484 3.745c.017.017.05.017.067.033.017.017.017.051.051.051l5.482 3.273c.033.017.067.017.084.034.017.016.034.033.05.033l3.943 1.552 1.81 1.164.71 1.35-.524 2.176-.626 1.873-.524.32.084-1.029zm-11.843 9.33l-.237-.17.39-.387c.033-.034.016-.085.05-.118.017-.034.068-.017.085-.05l.981-1.57c.05-.084.034-.168.05-.27.035-.084.086-.168.086-.27l-.119-1.214c-.017-.068-.068-.085-.084-.152a.854.854 0 0 0-.153-.27.583.583 0 0 0-.203-.152c-.067-.05-.101-.118-.186-.152l-1.59-.489c-.051-.017-.085.017-.136.017-.05-.017-.084-.05-.118-.05h-1.59c-.102 0-.186.084-.271.117-.102.034-.203.017-.27.085l-.34.287-.033-.203.237-.759 1.37-1.164.017-.017s0-.017.017-.017.017 0 .017-.017l4.06-3.745.153.287.676 2.277.559 3.543-.93 1.552-1.219 2.058c-.017.017 0 .051-.017.068-.017.017-.034.017-.05.05v.017h-.017l-.305.76-.88.118zm-5.786 2.429c-.033.034-.033.084-.067.118-.034.034-.085.034-.102.067l-2.774 4.32-3.587 4.284-4.45 3.948-4.55 3.576-5.042 2.767-4.974 2.126-5.854 1.67-4.72.354h-8.764l.237-.675c.017-.05-.017-.084-.017-.135.017-.05.051-.084.051-.135V189.4h2.098l9-.253c.051 0 .085 0 .136-.017l3.89-.742c.018 0 .018-.017.018-.017.034-.017.068-.017.101-.017l4.619-1.569h.034l4.872-1.822c.017 0 .017-.034.034-.034.034-.016.068 0 .085-.016l4.398-2.43c.034-.017.034-.05.051-.067.034-.017.068-.017.085-.034l3.282-2.8c.017-.017.017-.034.017-.034.017-.017.034 0 .034-.017l4.026-4.015c.034-.034.017-.068.051-.101.017-.034.068-.017.085-.05l3.146-4.826 2.589-3.053 3.705-3.104.017-.017c.034-.017.017-.068.05-.085l.035-.033c.033-.017.033-.034.067-.05.085-.035.17-.035.237-.085l1.218-1.013h1.15l.914.27.034.355-.761 1.231-1.015 1.012-3.689 3.206zm-39.775 45.446l.119 6.731v9.852l-1.32 6.36-1.201 5.854-.914 2.075-1.725-19.704.626-.253c.033-.017.033-.05.067-.067a.659.659 0 0 0 .322-.32c.034-.052.067-.068.084-.119l.034-.034.254-.742c.017-.017-.017-.034 0-.05 0-.018.034-.034.034-.051l.118-.608c.017-.067-.034-.118-.034-.168a.616.616 0 0 0-.067-.304.965.965 0 0 0-.186-.27c-.051-.05-.051-.101-.102-.135l-.744-.472c-.034-.017-.068 0-.102-.017-.034-.017-.05-.068-.084-.068l-1.472-.522-.406-2.919c-.017-.084-.085-.118-.102-.186-.05-.118-.084-.202-.17-.286-.084-.085-.151-.102-.27-.152-.067-.034-.101-.101-.186-.101l-.17-.034-.913-10.477-.118-4.032.355-2.8.592-2.716.44-1.198 1.404-2.227c.017-.033 0-.067.017-.084.017-.034.068-.067.085-.101l.05-.135h2.505l1.133 9.801c0 .017.017.017.017.034s-.017.017 0 .034l2.03 10.611zm-1.86 43.425l2.825 1.771.727.625-.355-.085c-.068-.017-.119.034-.186.034-.068 0-.136-.05-.203-.034l-2.403.473-2.808.236h-1.438c-.034 0-.068.033-.085.033-.034 0-.068-.016-.101-.016l-2.673.607c-.051.017-.068.05-.102.067-.05.017-.085-.016-.118.017l-1.337.726c-.017.017-.017.033-.034.05s-.034 0-.05.017l-1.574 1.097c-.068.05-.068.118-.118.168-.051.051-.119.068-.153.135l-1.353 2.548c-.034.05 0 .101-.017.152-.017.05-.068.067-.085.118l-.473 3.39c0 .017.017.034.017.051 0 .017-.017.034-.017.05l-.119 5.23c0 .017.017.017.017.034s-.017.017-.017.034l.745 12.146 2.182 41.13v1.332c0 .034.034.05.034.085.017.1.068.185.118.286.051.102.085.203.186.27.017.017.017.05.051.068l1.168.776.389 1.788.017.186-.39-.557c-.016-.017-.05-.017-.067-.05-.017-.018-.017-.051-.034-.068l-.372-.371c-.068-.068-.17-.068-.27-.102-.085-.05-.136-.118-.238-.135l-1.827-.236c-.017 0-.034.017-.05.017-.035 0-.035-.034-.068-.034h-2.623l-.067-1.012-1.574-27.076-.964-17.326-.237-18.118.66-3.121 2.402-3.189 4.822-4.571c.017-.017 0-.017.017-.034.085-.085.085-.186.118-.287.051-.101.119-.202.119-.32 0-.017.017-.017.017-.034l-.102-2.818.186-.236 1.946-.303 2.69-.237.524.237.085.27-.203 1.012c-.017.05.034.084.034.135 0 .05-.051.084-.051.135l.118 1.096c0 .034.034.068.051.101.017.085.068.152.119.237a.91.91 0 0 0 .237.27c.033.016.033.067.084.084l2.25 1.046zM99.75 274.475l.101-4.099.457-3.222 1.168-2.227 1.353-.928.947-.506-.812 1.704c-.017.017 0 .034 0 .05 0 .017-.033.017-.033.034l-1.337 3.644v.017c0 .017-.017.017-.017.017l-1.827 5.516zm6.564 1.165l1.506-.895 1.133-.168.982.489 1.387 2.345.288 1.333-.965.32c-.05.017-.05.068-.084.084a.827.827 0 0 0-.22.203.795.795 0 0 0-.203.27c-.017.034-.051.05-.068.084l-.61 2.683c0 .033.018.05.018.084s-.034.05-.034.084l-.49 14.812-.728 14.576v.017l-.017.017-.119 11.657v.034l.119 8.013-1.878.439c-.017 0-.017.017-.034.017s-.034-.017-.05 0l-.728.236c-.034.017-.034.033-.068.05-.101.05-.169.135-.254.22-.084.084-.152.135-.203.236-.016.034-.05.034-.05.067l-.288.979h-.034l-.067-.675c0-.017-.034-.034-.034-.05 0-.018.017-.034.017-.051l-.474-2.177c-.017-.1-.102-.151-.152-.236-.068-.1-.085-.236-.203-.303l-.017-.017-1.05-.709v-6.849l-.118-9.953v-15.757l.119-7.591 1.32-6.85c0-.016-.018-.033-.018-.05s.017-.034.017-.05l.339-3.695 2.013-3.273zm7.393 11.69l2.437 15.858 1.708 14.306.795 13.699-7.833.64-.88-.117-.101-8.132.118-11.64.728-14.542v-.017l.49-14.728.474-2.108.339-.118 1.725 6.9zm-2.098 114.615l-1.302-.27-.93-1.214-2.268-6.782-2.165-7.574-2.437-11.388-.609-4.335-1.336-15.25-.846-13.328v-7.945l1.201.151.118 7.103c0 .016.017.033.017.033 0 .017-.017.034-.017.034l1.1 10.41.728 10.577c0 .016.017.016.017.016 0 .017-.017.017-.017.017l1.472 12.5c0 .035.033.035.033.068 0 .017-.017.034-.017.051l2.437 9.363c0 .017.017.017.017.034.017.017 0 .017 0 .033l2.926 8.621c0 .017.017.017.017.034v.034l1.828 4.369a.915.915 0 0 0 .355.405s0 .017.017.017l1.472.843a.821.821 0 0 0 .44.118c.067 0 .118-.017.186-.017l1.1-.253c.152-.033.253-.152.355-.253.034-.034.084-.017.101-.05l-.677 1.602-1.252 1.99-.778.237h-1.286zm-2.926-68.611h.338l1.641.236c.034 0 .085.017.118.017h.068l7.918-.658.05.472.085 2.176-9.474.793h-.592c-.119 0-.22.085-.322.135-.084.034-.186.034-.254.085l-.016.016-1.016.928-.998-.118-.457-1.518c-.016-.084-.084-.101-.135-.169-.034-.05-.034-.101-.068-.152a.9.9 0 0 0 .288-.135c.05-.05.085-.1.119-.151.05-.085.135-.135.152-.22l.355-1.147.305-.101 1.895-.49zm4.381 63.027l-1.708-4.065-2.927-8.604-2.386-9.228-1.455-12.433-.727-10.56c0-.018 0-.018-.017-.018l.017-.017-1.1-10.375v-.438h.017c.017 0 .017-.017.034-.017a.772.772 0 0 0 .338-.084l1.472-.726c.05-.034.068-.084.102-.135a.988.988 0 0 0 .22-.236.65.65 0 0 0 .101-.304c0-.067.05-.1.05-.168l-.016-.085c.084.05.169.068.254.085.05.017.067.067.118.067l1.946.253c.033 0 .067.017.101.017.22 0 .423-.084.575-.22h.017l.592-.522.643 9.666.745 10.561c0 .017.017.017.017.017 0 .017-.017.017-.017.017l1.336 12.264c0 .017.034.034.034.05 0 .018-.017.035-.017.051l1.827 8.132 1.455 7.76c.017.034.051.05.051.084.017.034-.017.068 0 .085l.846 2.075a.99.99 0 0 0 .406.422c.017.016.017.033.034.033l.49.237a.75.75 0 0 0 .373.084h.101l-1.269 5.078-1.285 1.67-.457.101-.93-.574zm5.922-59.063l.558 10.628.254 12.366-.61 9.92-.608 7.743-.254 2.649-1.049 7.44-.254.22-.66-1.587-1.455-7.692-.016-.017v-.017l-1.828-8.114-1.336-12.164-.728-10.56-.626-10.105 8.612-.71zm-26.088-1.434l-1.506.54c-.034.017-.05.05-.085.068-.033.016-.084 0-.101.016l-.795.523-.17-3.171 1.286.22a.499.499 0 0 0 .153.016c.084 0 .135-.05.203-.084.118-.034.254-.05.338-.118.068-.051.085-.152.135-.237a.807.807 0 0 0 .17-.286v-.017l.372-2.058c0-.017-.017-.017-.017-.017 0-.017.017-.017.017-.034l.474-4.133.49-4.133c0-.034-.034-.05-.034-.085 0-.033.034-.05.034-.084l-.592-8.958.457-1.687c0-.017-.017-.017 0-.034 0-.017.017-.017.017-.033l.254-1.3 1.184 20.245-.66 3.053-1.624 1.788zm-11.37 5.095h-3.146l.237-1.94v-.017l.017-.017.49-6.427c0-.034-.034-.068-.034-.085 0-.033.034-.067.034-.1l-1.2-8.807v-4.926c0-.034-.018-.034-.035-.068 0-.017.017-.033.017-.067l-.846-5.955c-.017-.068-.067-.085-.084-.152-.017-.068 0-.135-.034-.186l-1.354-2.125-1.285-13.648 1.218 1.484a.053.053 0 0 0 .034.017c.152.169.389.304.625.304h2.555a.768.768 0 0 0 .27-.05l.762-.254 1.641 26.57c0 .017.017.034.034.05 0 .018-.017.035-.017.051l.457 2.396-.795 4.673-1.387 2.412c-.034.068 0 .135-.034.203-.017.067-.085.101-.085.168 0 .051.05.085.05.135a.92.92 0 0 0 .102.304.715.715 0 0 0 .203.253c.051.034.051.085.085.118.102.05.203.068.305.085.033 0 .033.033.05.033l6.581.49h.068c.203 0 .39-.085.541-.22.051-.05.068-.101.102-.152.068-.084.152-.151.17-.253l.287-1.029.355.068.203 3.812-.085.355-.66 2.294-6.411.203zm-8.441.742l-1.642-1.164-.829-2.26 1.625-.22H75.1a.865.865 0 0 0 .863-.86v-.86c0-.017-.017-.017-.017-.034s.017-.017.017-.034l-.119-2.058c-.017-.135-.101-.236-.152-.337-.034-.068-.034-.152-.085-.22l-.034-.033-.067-.068-.626-.624.101-3.88v-.017l.017-.017-.118-10.324c0-.017-.017-.017-.017-.034 0-.118-.085-.203-.118-.304-.051-.1-.068-.219-.153-.303 0 0 0-.017-.017-.017l-1.827-1.57c-.084-.067-.186-.067-.27-.084-.102-.033-.17-.118-.288-.118h-2.2c-.016 0-.016.017-.033.017-.102 0-.203.085-.305.118-.101.051-.22.068-.288.135-.016.017-.016 0-.033.017l-1.828 2.058c-.05.068-.05.135-.084.22-.034.067-.102.1-.119.185l-.98 4.623c-.018.033.016.067.016.084-.017.034-.034.05-.034.084v3.222l-3.434-.573-.423-5.213.457-6.04 4.466-2.783.643-.32 2.994-1.147 2.927-.203.068.084 1.353 2.126.812 5.685v4.926c0 .017.017.034.017.068 0 .017-.017.033-.017.067l1.202 8.79-.474 6.326-.305 2.43-1.1.556-2.401-.102zM56.1 393.056l-2.351 1.45-1.827.86-1.76-.185-1.607-1.602-2.775-3.003-2.368-6.478-1.81-6.512-1.93-8.553-1.082-11.101-.61-9.093-.744-12.99-.49-10.443.372-11.573 1.455-10.156 2.064-12.686 1.455-6.461.626-1.451.237 8.452v2.311l-.948 3.29c0 .017.017.033 0 .05 0 .017-.017.017-.033.034l-.982 5.23v.016l-1.472 8.739c0 .017.017.034.017.05 0 .017-.017.034-.017.051l-.727 10.443c0 .017.017.017.017.034l-.017.017-.254 11.42c0 .017.017.034.017.051 0 .017-.017.034-.017.05l.981 12.248.61 8.62c0 .018.016.035.016.051 0 .017-.017.034-.017.051l1.59 9.346v.034l.914 4.74c-.152.034-.304.068-.423.17-.067.067-.067.151-.101.236-.068.118-.152.219-.152.354v.034l-.119 3.137v.017l-.017.017v2.784c0 .1.068.168.102.253.034.101.05.22.118.287.068.084.17.118.27.168.086.05.136.135.238.135l1.912.287 3.975 11.64c.017.034.034.034.051.05.017.018 0 .035 0 .052l1.946 3.88.017.017.05.05a.93.93 0 0 0 .423.338c.034.016.034.033.068.05l2.081.607c.085.034.17.034.254.034l2.047-.017a.857.857 0 0 0 .626-.27c.017 0 .017 0 .017-.016l1.506-1.67-1.422 2.025zm-8.459-90.474c.034 0 .085.017.102.017l6.7.49h8.104c.033 0 .067-.018.084-.018l-.22 2.21-.964 5.416c0 .017.017.033.017.05s-.017.034-.017.05l-.254 3.898-.49 6.545c0 .034.016.051.016.068 0 .034-.017.05-.017.067l.474 5.888v.827c0 .033.034.05.034.084s-.034.068-.017.101l2.183 9.768.118 1.72v6.546c0 .034.034.05.034.085 0 .033-.034.067-.017.1l1.083 4.792.372 4.926c0 .034.034.05.034.084.017.034-.017.051-.017.085l.913 3.407-.795 2.598-1.607.945-4.957.338h-5.346l-4.738-1.434-.998-2.177-.473-7.288.609-4.892c0-.017-.017-.017-.017-.034 0-.016.017-.016.017-.033l.253-4.37.102-2.395 1.032-2.278c.017-.033-.017-.084.017-.118.017-.05.05-.067.068-.118l1.1-7.54-.018-.018c0-.016.017-.016.017-.016l.49-4.977c0-.05-.033-.067-.033-.118 0-.034.034-.068.034-.118l-1.337-8.014-.017-.016v-.017l-1.336-6.782-.474-2.784-.913-5.803 1.065.253zm22.062-108.728c.017.016.017 0 .034.016.017 0 0 .017.017.017l3.13 2.075 3.553 5.804c0 .017.016 0 .033.017s0 .033.017.05l3.773 5.213 1.184 1.822v4.488c0 .033.034.05.034.067 0 .034-.017.05-.017.068l.66 3.947-.321-.05-2.217-2.767c-.017-.017-.05-.017-.05-.034-.102-.118-.22-.152-.356-.202-.084-.034-.152-.068-.253-.068-.034 0-.051-.033-.068-.017l-3.891.237c-.068 0-.085.05-.136.067-.05.017-.101-.017-.152.017l-2.588 1.164-2.37.59-.405-4.926-.61-8.62v-.034l-.608-5.989.338-3.61.135-.22 1.134.878zm.525 28.324l-.407-4.082 2.674-.675c.016 0 .033-.034.05-.034.034-.017.068-.017.102-.033l2.538-1.148 3.299-.202 2.148 2.682c.034.034.068.017.085.051.118.135.27.253.474.27l1.827.236c.034 0 .084.017.118.017h1.168l1.675.658.829 2.176 1.658 4.808-.339 7.946-1.269.64-2.504-.218-1.032-.22c-.101-.033-.203.034-.287.05-.102.018-.203 0-.305.051-.101.068-.152.152-.237.253-.05.068-.152.102-.186.203l-.947 2.716-1.387.371-4.805.236-2.301-.556-.322-4.353c0-.017-.017-.034-.034-.05 0-.017.017-.034.017-.051l-2.3-11.742zm16.766 31.8l4.72-10.138 5.075-7.93 1.777-2.327.761 8.705-3.282 5.971v.017l-.017.017-.118.236v.034c-.017.017-.017.017-.034.017l-4.128 9.363c-.017.017 0 .034 0 .05-.017.018-.034.018-.034.034l-1.946 5.702-2.318 6.242-1.675.945c-.016 0-.016.017-.016.017h-.017l-3.773 2.311c-.034.034-.05.085-.085.101-.034.034-.084.034-.118.068l-2.081 2.362 1.506-5.399.98-2.918 1.574-4.606 3.249-8.873zm-5.482-61.93l-4.99-.709-5.127-1.788h-.017l-4.33-1.569-5.364-3.087-4.94-3.24-4.703-3.98-3.502-3.358c-.034-.033-.068-.016-.085-.033-.034-.017-.034-.068-.068-.085l-3.299-1.94-7.647-4.47-1.32-.844-.625-.472-.051-.523.474-.709.998-.81h.829l1.15.523 5.093 2.767 3.333 1.771 2.605 2.244 2.301 1.94 3.993 3.863c0 .017.017 0 .034.017s0 .017.017.034l3.536 3.037c.033.016.067.016.084.033s.017.051.05.068l5.72 3.39 3.89 2.312c.034.017.068.017.102.034l.05.05 4.382 1.586a.215.215 0 0 0 .102.017c.017 0 .017.017.034.017l4.145.843h.017l4.365.979a.686.686 0 0 0 .186.017h14.533l.186.405v1.248l-.254.742-.237-.067-15.65-.253zm-50.57-26.014l.288-1.231v-.017c0-.017.017-.017.017-.017l.372-2.041.474-2.176c0-.017-.017-.051-.017-.068 0-.017.034-.034.034-.067l.05-.625 1.32.81c.034.017.068.017.085.034.034.017.034.034.05.05l2.758 1.08.914.439.22.152.27.303H36.61c-.102 0-.17.085-.254.102-.101.033-.203.016-.287.084l-1.337 1.096c-.05.034-.034.085-.068.119-.033.033-.084.033-.101.067l-.728 1.097c-.067.084-.033.185-.067.286-.034.102-.085.186-.085.287l.119 1.215c0 .017.016.017.016.017.017.067.068.1.085.151.05.152.102.287.237.405a.053.053 0 0 1 .017.034l.981.742c.017.017.017 0 .034.017.017 0 .017.017.017.034l.067.05-.253.034-4.06-2.463zm-3.57.827l-.998-.725-.27-.726c-.034-.067-.085-.084-.119-.135-.067-.084-.118-.168-.22-.236a.677.677 0 0 0-.304-.118c-.068-.017-.102-.068-.17-.068H24.21l-.575-.185-.051-.388c0-.05-.051-.068-.051-.101-.017-.034.017-.085 0-.118-.034-.068-.101-.102-.152-.152a.635.635 0 0 0-.237-.236.81.81 0 0 0-.288-.085c-.084-.017-.135-.067-.237-.067-.05 0-.067.05-.101.05-.034.017-.085-.017-.102 0l-.304.118-1.015-.37-.254-.591v-.017c-.05-.118-.152-.169-.254-.27-.067-.067-.118-.169-.203-.22l-1.269-.522-.152-.877c-.017-.034-.05-.051-.05-.085-.018-.034.016-.05 0-.084l-.61-1.57c-.017-.033-.067-.05-.084-.083-.017-.034 0-.085-.034-.119l-1.184-1.62-.102-1.517.118-1.974.322-2.26 1.286-1.367c.017-.017.017-.05.034-.068.016-.017.033-.017.05-.033l.61-.86c.016-.018 0-.035.016-.051.017-.017.051-.034.051-.068l.118-.236c.034-.068 0-.135.017-.203.017-.067.085-.118.085-.185v-.422l.237-1.248c.017-.05-.034-.085-.034-.118 0-.051.034-.085.034-.118l-.254-2.312-.017-.017v-.016l-.287-2.126.947-.624 2.165-1.03 2.081-.438 2.166.236 1.98.422.44.455v6.411c0 .085.067.118.084.186.017.067-.017.135.017.202l.186.371.101.59v.018c0 .017.017.017.017.033v.034l.119.49c.034.084.101.134.135.219.034.05.017.101.05.152l.965 1.096 1.49 1.704.676 1.687c.017.017.034.034.034.05.017.018 0 .034.017.051l.016.05v1.603c0 .034.034.051.034.085 0 .034-.017.05-.017.084l.373 1.822a.698.698 0 0 0 .203.32c.033.051.033.102.067.136l.677.624-1.573-.979-.508-1.535c-.017-.067-.085-.084-.135-.152a.933.933 0 0 0-.203-.236c-.085-.067-.186-.084-.288-.118-.068-.017-.118-.084-.186-.084-.05 0-.085.05-.135.05-.051.017-.085-.033-.136-.016-.067.016-.084.084-.152.134a1.53 1.53 0 0 0-.254.203c-.067.101-.084.185-.118.287-.017.067-.085.118-.085.185v1.822l-.118 1.57-.474 2.125v.017c0 .017-.017.017-.017.017l-.372 2.04-.338 1.469-.085.151-.237.473h-.017l-.22.422-.389.151-.896-.236zm-10.286-3.34c-.034 0-.05.017-.068.017-.016 0-.033-.017-.05-.034l-2.081-.236c-.085-.017-.136.05-.203.067-.085.017-.153-.034-.237 0l-3.4 1.451c-.035.017-.035.05-.068.067-.034.017-.068 0-.085.017l-4.5 3.155c-.051.034-.051.101-.085.135-.05.034-.102.034-.135.084l-2.2 3.256-1.658 1.013-.524-.22v-3.998l1.54-2.075c.016-.017 0-.034.016-.05.017-.034.051-.034.068-.068l1.32-2.682c.017-.017 0-.034 0-.051l.05-.05 1.27-3.712 4.5-4.859c.017-.017.017-.033.017-.033.017-.017.017 0 .033-.017l3.638-4.589 1.945-2.328.22.692c.017.033.034.033.051.067.034.068.068.101.102.152.084.118.169.22.304.27.034.017.034.067.085.067l.254.085-1.32 1.417c-.068.067-.05.169-.085.253-.033.084-.118.118-.135.22l-.372 2.563c0 .017.017.017.017.034s-.017.017-.017.034l-.119 2.075c0 .017.017.034.017.05 0 .034-.017.034-.017.068l.119 1.822c0 .084.084.152.101.236.034.068.017.152.051.22l1.269 1.737.541 1.35.237 1.248c.017.034.05.05.05.084.035.085.086.135.12.203a.826.826 0 0 0 .27.27c.034.017.034.067.085.084l1.37.59.17.456-2.47-.607zM15.8 137.456l1.083-2.58 2.673-2.565 2.318-.996 2.487-.421 1.861.658h.034l2.47.793 1.472 1.467.203 1.772c0 .016.017.016.017.033s-.017.017 0 .034l.372 1.822.643 3.593-.846-.877c-.017-.017-.017-.067-.034-.084l-.846-.844c-.067-.067-.152-.067-.237-.1-.067-.035-.118-.119-.203-.136l-2.317-.49c-.017 0-.034.018-.051.018-.017 0-.034-.034-.05-.034l-2.302-.253c-.05 0-.084.034-.135.05-.05 0-.085-.033-.136-.033l-2.317.472c-.034.017-.051.05-.085.068-.034.017-.068-.017-.101 0l-2.301 1.096-.051.05c-.017.018-.05 0-.068.018l-1.472.978c-.05.034-.05.085-.084.118-.051.05-.102.068-.136.118 0 .017-.017.017-.033.017l-.846 1.333c-.051.067-.017.152-.051.236l-.93-3.56v-1.77zm17.511-14.508l.592-1.164-.084.64-.559 1.013.051-.49zm4.568-8.992c0-.017.017-.017.017-.017l3.773-8.384c.017-.017 0-.034 0-.05 0-.018.034-.034.034-.051l2.554-8.486 3.773-10.173c.017-.016-.017-.033 0-.05 0-.017.034-.034.034-.05l1.573-7.052L51.955 69.2c.017-.034-.017-.068-.017-.084 0-.034.034-.068.034-.085V66.72c0-.287-.17-.523-.406-.675l3.773-2.176 4.11-1.248 1.507.219h.033l1.083.169c-.084.1-.22.202-.254.337l-1.556 6.444-4.822 8.756c-.034.067 0 .118-.017.168a.695.695 0 0 0-.034.321c.017.118.051.202.085.304.034.05.017.118.068.168a.643.643 0 0 0-.22.152c-.051.034-.102.034-.153.085-.033.05-.016.1-.05.151-.034.05-.085.068-.102.135l-2.08 6.428v.034c0 .016-.018.016-.035.033L50.838 95.4c-.017.017.017.034.017.05 0 .018-.034.034-.034.051l-1.1 11.421c0 .017.018.034.018.068 0 .017-.017.033-.017.05l.253 8.857c0 .017.017.017.017.034s-.017.034-.017.05l.694 5.669-3.451 5.736-4.213 4.555c-.017.016-.017.033-.017.05-.017.017-.034.017-.05.034l-2.555 3.39a.861.861 0 0 0 .169 1.215c.05.034.101.034.135.051v.017c-.084.084-.084.202-.118.287-.05.118-.119.202-.119.32 0 .017-.016.017-.016.017l.101 2.008-1.556 2.193-2.758 1.839-.017.016-.017.017c-.068.051-.085.135-.135.203-.085.101-.203.185-.237.32l-.474 2.058c0 .034.017.051.017.068 0 .034-.034.05-.034.067l-.254 3.358-.236 1.164c0 .016.016.016.016.033s-.016.017-.016.034l-.204 1.653-.592.355-.355-.878c-.017-.05-.085-.067-.101-.1-.034-.051-.017-.102-.051-.136l-1.574-1.822-.338-.388.085-.017a.912.912 0 0 0 .575-.37h.017l.473-.726c.017-.034 0-.05.017-.085.017-.033.068-.05.085-.1l.49-1.334c.034-.067-.016-.118-.016-.168.017-.068.067-.101.067-.152l-.253-4.977c0-.033-.017-.033-.017-.067 0-.017.017-.034.017-.05l-.711-4.05.27-7.98.102-1.484 2.589-4.706c.034-.05 0-.102.017-.152.034-.068.084-.101.084-.152l.592-5.078 1.777-3.779zm29.489-49.225a.96.96 0 0 0 .304.05h.051l4.213-.252h.05c.17-.017.288-.101.423-.203l-.812 2.615s-.017 0-.017.017l-.609 2.075v.034l-2.673 9.717c0 .017.017.017 0 .017 0 0 0 .017-.017.017l-2.419 10.156-5.126 17.376v.017s-.017 0-.017.016l-1.895 6.884-4.027 5.078c-.017.017 0 .017-.017.033-.016.017-.033.017-.033.017l-2.335 3.391-.71-5.904-.238-8.739 1.083-11.32 2.047-8.755 1.675-5.18 4.247 3.543a.91.91 0 0 0 .558.203.843.843 0 0 0 .558-.203c.034-.016.017-.05.034-.067s.051-.017.068-.034c.068-.084.05-.168.085-.253.05-.101.101-.202.084-.303 0-.102-.05-.203-.084-.304-.034-.084-.017-.186-.085-.253l-4.484-5.264 4.585-8.35c.017-.034 0-.068.017-.102.017-.05.068-.067.068-.101l1.59-6.562c.051-.17-.017-.32-.084-.473l3.942 1.366zm11.555-42.715c.017-.017 0-.017 0-.034 0-.016.017-.016.034-.033l1.658-4.218 2.115-2.328 2.943-1.754.863-.439 2.724.76h.034c.017 0 .017.016.017.016l8.07 1.788 2.842 2.295 2.437 4.976.456 1.89.017.472c-.017-.017-.017-.034-.05-.05l-2.081-.844c-.051-.017-.102.017-.17 0-.067-.017-.101-.068-.152-.068h-2.3c-.018 0-.035.017-.051.017-.017 0-.034-.017-.051-.017l-1.946.253c-.017 0-.017.017-.034.017s-.034-.017-.05-.017l-1.574.372a.852.852 0 0 0-.643 1.029.866.866 0 0 0 .846.674c.068 0 .119-.016.203-.016l1.557-.355 1.827-.236h2.098l1.912.793c.101.05.22.067.321.067a.84.84 0 0 0 .44-.134l.05 1.096v2.919c0 .05.051.084.051.135 0 .05-.033.084-.017.135l1.168 3.458-.322 2.514-.947 2.834c-.017.017 0 .033 0 .05s-.017.017-.017.034l-.71 2.97-1.303 3.053-2.115 3.509-1.066 1.299v.017c0 .016-.017.016-.017.016l-.677.911-2.368 2.126-2.25.742h-2.809l-3.299-.674-1.996-1.215-2.656-2.548-1.777-2.716s-.017 0-.017-.016v-.017l-2.199-3.155c-.017-.034-.05-.034-.068-.05-.017-.034-.017-.068-.034-.085l-.033-.034-.034-.033-.017-.017-.795-3.155s-.017 0-.017-.017v-.017l-.626-2.176a.789.789 0 0 0-.186-.641l-.508-1.788V30.18l1.404-4.2 1.895-3.965zm23.77 37.705a.053.053 0 0 0 .034.017c.017.017.017.034.017.05l2.487 2.598 1.421 9.448c0 .017.017.017.017.033 0 .017-.017.017-.017.034l3.384 15.166-6.023 3.459c-.084.05-.101.152-.169.219a.956.956 0 0 0-.203.253c-.034.101-.017.22-.017.32.017.085-.05.186 0 .27.017.034.034.034.05.068.018.017 0 .034 0 .05.018.034.052.017.068.034.17.237.407.405.677.405a.63.63 0 0 0 .305-.067l5.261-2.025.49 5.129-.608 8.098-1.54 6.865-2.74 4.876c-.018.034 0 .067-.018.101-.016.034-.067.05-.067.101l-1.472 5.702c-.017.017.017.034.017.068-.017.017-.034.034-.034.05l-.964 8.317-.288.996-.592-1.704-1.997-6.698s-.016 0-.016-.016v-.017l-1.777-5.331v-5.095c0-.101-.084-.186-.118-.287-.034-.084-.017-.202-.085-.27l-.474-.54 1.168-7.625c0-.034-.017-.05-.017-.067s.034-.034.034-.068v-9.144l-.119-6.781.119-5.922.609-7.237c0-.017-.017-.034-.017-.05 0-.018.017-.034.017-.051l-.119-7.052v-1.248l.846-5.399c.017-.034-.017-.05-.017-.067s.034-.034.034-.068v-3.036l2.453 3.138zm6.514 68.34l.643-3.24.22.98c.017.067.067.084.084.134s0 .085.017.118l2.42 3.863 2.791 5.095.05.05c.018.018 0 .035.018.052l4.263 5.837c.017.033.051.017.068.033.017.034.017.068.034.085l5.854 5.466c.017.017.034 0 .034.017a.052.052 0 0 1 .016.033l4.873 3.88c.017.017.034.017.05.017l.035.034 4.99 3.29c.102.067.22.084.339.1.033 0 .05.035.084.035l1.675.118 1.404.219 3.316 1.535c.119.05.237.085.373.085h2.3c.085 0 .17-.017.254-.034l1.946-.607c.017 0 .017-.034.05-.034.034-.017.068-.017.102-.034l.288-.152h.27c.153 0 .322-.05.474-.135l.592-.388-.101 1.164c0 .034.034.068.034.085 0 .033-.034.067-.034.084l.254 1.822c0 .034.033.05.05.084s-.017.068 0 .085l1.337 3.644c0 .016.017.016.017.033v.034l.609 1.333c.017.05.068.067.084.101.017.034.017.05.034.084l.44.557-3.13 2.615c-.017.017-.017.05-.034.067s-.05.017-.067.034l-2.673 3.155c-.017.017-.017.034-.017.05-.017.017-.034.017-.051.034l-3.13 4.791-3.908 3.897L135.65 181l-4.246 2.362-4.822 1.805-4.551 1.552-3.74.709-8.17.22-.762-6.732-.237-2.564.423.236a.92.92 0 0 0 .423.101h.728a.83.83 0 0 0 .592-.253c.05-.05.067-.135.101-.202.068-.102.153-.203.17-.338l.253-2.547c0-.017-.017-.034-.017-.068 0-.016.017-.033.017-.05l-.118-4.235.118-4.723 1.54-5.112c.017-.034-.017-.05-.017-.084.017-.034.034-.051.05-.085l.61-5.955c0-.05-.034-.084-.034-.118 0-.05.034-.084.034-.135l-1.1-5.466c0-.017-.017-.017-.034-.033 0-.017.017-.034 0-.051l-1.438-4.656-.474-4.47v-2.869c0-.084-.067-.118-.084-.202-.017-.068.017-.135-.017-.22l-2.064-3.897.423-4.858zm31.028 10.24l2.183-1.974h1.1l8.205.236 1.506 1.4.304 1.519.085.843-1.117-.624h-.017l-.643-.354v-.709c0-.168-.084-.303-.186-.438-.034-.05-.017-.118-.067-.169l-.846-.843c-.017-.017-.051-.017-.068-.034-.102-.085-.22-.101-.338-.135-.102-.034-.187-.068-.288-.05-.034 0-.05-.018-.085-.018l-1.353.253c-.05.017-.068.051-.102.068-.05.017-.084-.017-.118.017l-.964.472-.812.338c-.085.033-.102.118-.17.185-.084.068-.186.085-.237.186l-1.455 2.547c-.033.05 0 .084-.016.135-.017.05-.068.068-.085.101l-.846 3.897c-.017.05.034.085.034.135-.017.05-.05.085-.05.118l.236 3.104v.473c0 .034.034.05.034.067 0 .034-.017.05-.017.068l.609 3.88c0 .017.017.017.017.034.017.067.068.1.084.151.068.152.136.27.254.372.017.016.017.033.034.05l.626.405-.643.203h-1.98l-2.994-1.384-1.032-1.754-1.252-3.745.457-4.775 2.013-4.251zm15.887 17.663l.592-1.097.88-.32h.863l.135.118-2.47 2.277v-.978zm-8.662-4.96l1.252.945.287.59-1.184.776-1.523-.978-.338-2.21 1.506.877zM95.94 261.033c-.017.017-.017.05-.034.067-.016.017-.05.017-.067.034l-2.487 3.306 1.708-7.54 2.403-7.66.084-.151 2.081-3.78.626 5.787-.44.22c-.033.016-.033.05-.05.067-.102.067-.136.152-.203.236-.068.101-.136.169-.17.287 0 .034-.033.05-.05.084l-.119.979c-.017.101.051.168.068.27.017.1-.017.185.034.27l.49.843c.017.034.068.017.085.05a.812.812 0 0 0 .558.338l.085 1.974-4.602 4.319zM81.9 333.778l.778-1.35c.034-.05 0-.084.017-.135.017-.05.085-.084.085-.152l.846-4.976v-.017l.017-.017.727-5.196 2.538-10.628v-.034c0-.016.017-.016.017-.033l1.708-10.088c0-.017-.016-.017-.016-.034s.016-.017.016-.034l1.828-18.709c0-.017-.017-.033-.017-.05s.017-.034.017-.051v-.557l.473-4.065v-.017c0-.017.017-.017.017-.017l.373-5.399.101-.404.728-2.885v-.017l.49-1.738-.237 1.08c-.017.034.017.067.017.101s-.034.05-.034.085l.254 18.22c0 .016.017.016.017.016v.017l.964 17.258-1.556 7.76-.474 1.789v.017c0 .017 0 .017-.017.017l-2.3 9.835-2.555 9.666-.288 1.03-4.534-.288zm-3.282-37.266h-2.013l-1.286-1.552-.305-2.43 2.453-5.702 4.551-7.625 3.689-3.678-1.168 3.577-2.064 5.196c-.017.033.017.067 0 .084-.017.034-.05.05-.05.084l-.61 3.88-.964 4.673-.846 3.003v.017l-1.387.473zm-7.478-1.215l-.254-1.232 2.572-5.702 2.757-5.955 4.06-4.757 2.708-3.07 3.67-2.244 1.913-1.08 1.404-.81-.135.54-2.792 1.282-.829.355c-.05.016-.068.084-.118.118-.051.033-.119.016-.153.067l-5.244 5.213c-.034.034-.017.067-.051.101-.034.034-.068.034-.085.068l-4.635 7.777c-.017.017 0 .033-.017.067-.017.017-.034.017-.05.05l-2.555 5.956c-.017.017 0 .017 0 .034s-.017.017-.017.017l-.83 2.26-.084.152-.795 1.147-.44-.354zm1.59-39.493c.017-.05-.017-.101 0-.152.017-.05.068-.084.068-.151l.372-7.642c0-.017-.017-.017-.017-.034s.017-.017.017-.034l-.237-7.49v-.118l1.387.337 2.369 21.999s.017 0 .017.017l.846 6.73v7.862c0 .085.067.135.084.203.034.1.051.202.119.286a.8.8 0 0 0 .169.17l-3.096 3.643c-.034.034-.017.085-.034.118-.034.034-.068.05-.084.085l-1.455 3.154-.559-5.904-.372-4.471-1.066-15.082 1.472-3.526zm7.41-15.385h.017c.05 0 .102-.017.152-.017l1.946-.49c.017 0 .034-.033.05-.033l-.727 2.598c0 .034.017.05.017.084s-.034.034-.034.068l-1.1 10.696c0 .016.018.033.018.05s-.017.034-.017.05v13.581l-.93 2.784c0 .016.016.016 0 .033 0 .017-.018.017-.018.017l-.254.894v-1.518c0-.017-.017-.034-.017-.05 0-.017.017-.034.017-.051l-.846-6.782-2.334-21.678 4.06-.236zm11.234 23.854v-.017l.017-.017.694-2.041-.66 2.902-.863 3.036-.795.456 1.607-4.32zm-4.872 20.278c-.034.033-.017.067-.034.1-.017.035-.068.035-.085.068L83 291.03l.456-2.227 2.944-5.972 2.47-2.581c0-.017 0-.017.017-.034h.017l-.17 1.383c0 .017.018.034.018.05 0 .018-.017.035-.017.052v.286l-2.233 2.565zm2.74-7.322l-1.607 1.822-2.08 2.176.591-1.501v-.017c0-.017.017-.017.017-.034l1.963-5.955 1.404-.64-.288 4.15zm-7.714 20.48a.76.76 0 0 0 .27.051c.271 0 .474-.152.643-.354.017-.034.068-.017.085-.05.017-.035 0-.068.017-.085.017-.05.068-.068.085-.101l1.438-4.42 3.823-7.12.592-.674-1.556 15.993-1.709 10.037-2.284 9.583-1.404-22.842c-.017-.034 0-.017 0-.017zm10.608 25.154l-.474 4.048-.49 4.134-.204 1.164-.626-.102c-.05 0-.084.034-.135.034-.05 0-.085-.05-.135-.034l-1.388.237 2.25-8.52v-.017l.017-.017.999-4.217.186 3.29zM104.4 187.6l.762.135.389.59v3.02l-.559 1.687-.22.624-1.404 2.227c-.017.034 0 .067-.017.084-.017.034-.05.034-.067.068l-.271.776h-3.215l-.186-.81v-.135c0-.084-.067-.118-.084-.202-.017-.068.017-.152-.034-.22l-.728-1.333c0-.016-.016-.016-.016-.016-.017-.017 0-.017-.017-.034l-.153-.253c.051-.034.051-.085.085-.135.05-.068.118-.118.152-.22l.474-1.467c.017-.05-.017-.085-.017-.135.017-.05.05-.084.05-.135v-1.569c0-.067-.05-.101-.067-.169-.017-.067.017-.118 0-.168l-.49-1.097c-.034-.05-.085-.067-.119-.101a.737.737 0 0 0-.237-.22c-.084-.05-.135-.1-.237-.118l.186-.27.474-.134 5.566-.27zm2.233 36.102l.153.101-.085.27-.609-.472c-.05-.034-.118-.017-.17-.051-.05-.034-.084-.084-.134-.101l-.93-.253h.32l1.455.506zm-5.396 28.898l-.254.287-.017-.034.034-.236.44-.22.203-.033c-.051.017-.085.05-.136.084-.084.068-.203.068-.27.152zm1.268-31.159c-.017 0-.033.017-.05.017s-.034-.017-.051-.017l-2.74.32-.136-2.125h.727l2.673-.118h.745l.152.017.27 1.89-1.59.016zm-.355-21.188c0 .017.017.033.017.05s-.017.034-.017.034l-.372 2.919c0 .033.017.05.017.067s-.034.034-.034.068l.118 4.133c0 .017.017.017.017.033 0 .017-.017.017-.017.034l.88 10.24-2.622.118h-.05l-.88-7.135-.61-6.344.237-3.779.339-2.142h3.316l-.339 1.704zm-3.756 23.5c-.034.033-.017.1-.034.135-.033.05-.084.067-.101.118l-.152.556-.085-.236v-.152l.152-.337.22-.084zm9.12 26.486l-1.134-.118c-.034 0-.05.016-.085.033-.034 0-.05-.033-.084-.033l-3.046.236c-.017 0-.034.017-.034.017-.016 0-.033-.017-.05-.017l-1.168.202-.862-8.182-.982-11.184v-.034l-.592-5.162.288-.996 3.417-.506 1.946.506.135.102v.067c0 .017.017.034.017.034 0 .017-.017.034-.017.034l2.081 23.685v.034l.17 1.282zm-.356-62.553c-.017-.034 0-.067-.017-.101l-.727-1.097c-.034-.05-.102-.067-.153-.101-.118-.118-.237-.236-.389-.27l-1.218-.236c-.034-.017-.068.017-.101.017-.034-.017-.051-.034-.102-.034l-5.718.236c-.051 0-.068.034-.102.05-.034 0-.067-.016-.101-.016l-.846.253c-.102.034-.152.118-.237.186-.085.05-.17.067-.237.135l-.609.843c-.068.084-.034.169-.068.253-.033.084-.101.152-.101.253v.101H83.015l-4.28-.961h-.034l-4.077-.827-4.264-1.535-3.823-2.26-5.668-3.358-3.451-2.969-4.01-3.88c-.017-.017-.017 0-.034-.017-.016-.017-.016-.017-.016-.034l-2.318-1.94-2.657-2.294c-.033-.017-.067-.017-.084-.034-.034-.017-.034-.067-.068-.084l-3.4-1.822-4.755-2.598-.169-.928c-.017-.084-.084-.135-.135-.202-.034-.068-.017-.152-.068-.22l-.981-1.096c-.034-.034-.068-.017-.102-.051-.033-.034-.033-.084-.067-.101l-.102-.068-.152-.64c-.017-.068-.085-.085-.102-.153-.033-.067-.016-.118-.05-.185l-.491-.607c-.05-.051-.101-.051-.152-.085-.05-.05-.05-.101-.102-.135l-1.235-.675-1.167-1.08-.288-1.467v-1.569l1.286-.776c.017-.017.017-.05.05-.067.102-.085.153-.186.238-.304.05-.084.101-.135.118-.22 0-.016.034-.033.034-.05l.152-1.366 4.01-.405 5.938.236 7.326 2.041a.285.285 0 0 0 .118.017c.017 0 .017.017.017.017l1.37.135-.32 3.897c-.018.101.067.185.084.287.034.1.034.236.101.32.068.085.17.101.254.152.102.067.17.152.288.169l1.573.236c.05 0 .085.017.118.017.017 0 .034-.017.034-.017.186-.017.373-.068.508-.186.05-.033.068-.1.101-.152.085-.1.17-.185.203-.32l.491-2.294c.017-.034-.017-.051-.017-.068 0-.034.034-.05.034-.067l.085-1.417 1.877.151 5.228.726h.05l6.21.49h.068c.05 0 .101 0 .152-.018l.541-.084.39 3.762-.12 6.158-.117 2.024c-.034.472.338.877.812.91h.05a.867.867 0 0 0 .863-.809l.119-2.058v-.017l.017-.017.118-6.191c0-.017-.017-.034-.017-.05 0-.018.017-.034.017-.051l-.406-3.948 3.282-.573h4.99l2.826.354-.338 2.041v.017c-.017.118.05.22.084.32.034.102.017.22.085.304.05.068.135.085.22.118.101.085.203.203.338.22h.034l1.557.253c.05.017.101.017.135.017.068 0 .118-.051.186-.068.135-.034.27-.05.372-.135.051-.05.068-.118.102-.169.084-.1.169-.202.203-.337l.338-2.041 5.702 1.164 4.703 1.063 1.962 1.231.508 1.097c.017.033.05.05.084.084.017.017 0 .05.017.067l1.828 2.43.778 1.096 1.523 4.336.71 3.998.237 3.847v.033l.49 5.23v.034l.745 6.562-1.302.017zm-76.184-41.855l-.203.59v-2.057l.203 1.467zm9.153-2.969c.05-.034.068-.101.101-.152.034-.033.085-.016.119-.067l1.827-2.564c.068-.085.034-.186.068-.287.034-.085.101-.169.084-.27l-.101-1.906 3.874-3.864c.017-.033.017-.067.034-.084s.05-.017.068-.034l4.145-5.837h.017l5.837-8.503 4.11-5.179c.035-.033.018-.084.035-.135.033-.067.101-.1.118-.168l1.946-7.035L67.535 89.4v-.034c0-.017.017-.017.017-.017l2.436-10.173 2.605-9.464.559 1.282v2.733c0 .051.05.085.05.135.017.051-.033.085-.016.135.033.085.101.135.152.203.05.067.068.1.118.152.153.135.339.236.559.236a.768.768 0 0 0 .27-.05l2.386-.794.101.017-.304 1.08c-.034.101.034.202.034.303.017.102-.034.203.017.304l1.218 2.548.034.033v.034l1.86 3.24.474 5.28c0 .033.034.05.034.067 0 .034-.017.05-.017.068l2.42 9.278.964 9.194-.592 6.326-3.113 6.293c-.017.05 0 .084-.017.118-.017.05-.068.067-.068.118l-1.336 8.62c-.017.034.017.051.017.068 0 .034-.034.05-.034.084l.118 5.247-2.944 5.516c-.017.017 0 .034 0 .05-.017.017-.034.017-.034.034l-2.08 5.213c-.017.05.016.084 0 .118-.017.05-.051.085-.068.118l-.423 5.517h-.17c-.016 0-.033.016-.05.016s-.034-.016-.05-.016l-8.46.961h-5.87l-1.523-.236h-.017l-.017-.017-4.466-.472-6.43-3.324c-.05-.017-.084 0-.135-.017-.05-.016-.067-.067-.118-.084l-6.21-1.096c-.067-.017-.118.033-.202.05-.068 0-.119-.05-.186-.017l-1.642.456.068-.304 2.673-1.669zm4.72-10.274l-.372.372.457-.49-.085.118zM76.28 72.091l-1.404.473v-1.721c0-.067-.05-.101-.068-.169-.017-.067.034-.118 0-.185l-1.455-3.34 1.49-4.792c.016-.067-.035-.118-.018-.185 0-.068.068-.102.051-.169l-.118-.978.304-2.008 1.032 4.032.017.017v.017l1.523 5.33v2.65l-.339 1.028-.66-.067c-.067-.017-.118.05-.186.05-.05.034-.101 0-.169.017zm16.868-4.183c0-.017 0-.017.017-.034 0 0 .016 0 .016-.017l3.536-4.251c.017-.034.017-.068.034-.102.034-.05.085-.067.102-.118l1.624-3.93v.135l-.846 5.398c-.017.034.017.05.017.068 0 .016-.034.033-.034.067v1.063l-1.658 2.311v.017s-.017 0-.017.017l-2.3 3.408c-.034.033-.018.084-.034.118-.034.05-.068.05-.085.1l-.998 3.223-.102-1.923c0-.068-.05-.101-.067-.152-.017-.05.016-.101-.017-.152-.034-.05-.085-.067-.119-.101a.649.649 0 0 0-.254-.22.748.748 0 0 0-.27-.1c-.068-.017-.085-.068-.153-.068h-.05c-.068 0-.085.05-.153.067-.05.017-.118-.016-.169.017l-.406.186-.372-2.041 2.758-2.986zm5.38 54.593l2.064 6.664s.017 0 .017.017v.016l1.404 4.1-.118 3.12c0 .035.016.051.033.068 0 .034-.033.05-.033.068l.845 7.051c0 .017.034.034.034.051 0 .017-.017.034-.017.05l1.438 5.872.119 5.094-.423 5.078-.406-.523-.558-1.231-.846-2.041c-.034-.051-.085-.068-.119-.119-.034-.05-.017-.118-.068-.151l-1.827-1.822c-.05-.051-.135-.051-.186-.085-.067-.05-.084-.118-.152-.135l-4.873-1.585h-.016l-1.692-.557-.254-1.451.474-8.671 1.556-5.618c.017-.034-.017-.067-.017-.084 0-.034.034-.051.034-.085l.474-7.203 2.132-8.621.98 2.733zm-3.384 32.407h-.034l-5.955-1.214-.237-1.603.71.135 2.538.725h.017l2.149.709 4.67 1.518.778.776-4.636-1.046zm-12.012-2.075c-.017 0-.034.017-.05.017-.017 0-.034-.017-.051-.017h-5.11c-.034 0-.05.034-.067.034-.034 0-.051-.017-.085-.017l-5.498.962-6.04-.473-5.245-.725c-.016 0-.016.017-.033 0l-.017-.017-1.929-.169.085-1.029h5.177c.033 0 .067 0 .101-.017l8.46-.961h.879l5.177.725h.101l5.905.236.575.118.305 1.67-2.64-.337zm-28.964-1.096l-7.343-2.042c-.033-.017-.067.017-.101.017-.05-.017-.068-.05-.102-.05l-6.09-.237c-.034 0-.05.017-.068.034-.017 0-.033-.017-.067-.017l-3.587.371.017-.067c0-.017-.017-.034-.017-.05 0-.018.034-.034.034-.051l.203-2.8 2.267-.625 5.888 1.03 6.463 3.34c.084.033.152.05.253.067.034 0 .034.034.068.034l3.739.405-.118.826-1.439-.185zm2.893 1.653l.085-.27c.017-.034-.017-.05-.017-.084.017-.034.034-.034.034-.068l-.017.152.017.017-.017.017-.119 2.227-.27 1.231.304-3.222zm33.887-71.985c.017 0 0-.017.017-.017.085-.084.085-.202.119-.32.034-.101.101-.186.101-.304v-.017l-.253-4.453.913 1.94.017.017c.017.033.05.033.05.067.102.152.238.27.39.32.034.017.034.051.068.051a.66.66 0 0 0 .253.034.992.992 0 0 0 .373-.084l.05-.051a.807.807 0 0 0 .339-.371c.017-.034.05-.05.067-.084 0-.017.017-.017.017-.017l1.675-5.348 2.25-3.307.288-.405.085 4.403-.61 7.238c0 .017.017.017.017.033 0 .017-.016.017-.016.034l-.119 5.955v.034l.119 6.799v9.042l-1.202 7.946c0 .017.017.017.017.034v.067c0 .017-.017.017-.017.034l.119 8.03-2.284 9.245c0 .033.017.05.017.084s-.034.05-.034.068l-.474 7.186-1.556 5.635c-.017.034.017.068.017.101 0 .034-.034.05-.051.085l-.474 8.873c0 .034.034.068.034.102 0 .033-.034.067-.034.1l.118.71-1.218-.355c-.017 0-.033.017-.05 0-.017 0-.017-.017-.034-.017l-1.946-.371h-.017c-.017 0-.017-.017-.017-.017l-1.675-.236-1.2-.253c-.035 0-.052.017-.068.017-.034 0-.051-.034-.068-.034l-5.939-.236-4.381-.607.406-5.382 2.013-5.044 3.028-5.669c.034-.067 0-.135.017-.219.017-.084.085-.118.085-.202l-.119-5.399 1.303-8.401 3.113-6.326c.034-.05 0-.101.017-.152.017-.05.068-.084.085-.152l.609-6.562c0-.034-.034-.05-.034-.085 0-.033.034-.05.034-.084l-.965-9.228.948-5.06 1.387-4.977 4.28-4.438zM78.633 48.492l1.827 2.783c.017.034.068.017.084.05.034.034.017.085.051.102l2.809 2.665c.033.034.067.017.084.034.034.034.034.068.068.085l2.2 1.332c.067.034.118.034.202.05.034.018.051.051.085.051l3.519.726a.634.634 0 0 0 .17.017h3.044a.768.768 0 0 0 .271-.05l2.572-.844c.05-.017.067-.085.118-.102.068-.033.135-.033.186-.067l1.794-1.62-.204 2.21-.355 2.193-1.86 4.522-3.435 4.133-3.029 3.273c-.017.017-.017.05-.017.067-.067.085-.084.203-.101.304-.034.101-.085.202-.068.32 0 .017-.017.034-.017.068l.474 2.598v.894c0 .017.017.017.017.034s-.017.017-.017.017l.338 6.19-4.246 4.337c-.05.05-.05.134-.085.202-.05.067-.118.101-.135.169l-1.472 5.23c0 .016.017.033.017.033 0 .017-.017.017-.034.034l-.27 1.417-1.439-5.517-.473-5.398c-.017-.067-.068-.101-.085-.169-.017-.067.017-.118-.034-.185l-1.928-3.374-1.066-2.227.507-1.72.61-1.823c.016-.05-.018-.084-.018-.135.017-.05.051-.084.051-.135v-2.918c0-.05-.05-.085-.05-.118 0-.051.033-.085.016-.118l-1.573-5.433-1.421-5.567.457-4.791 1.404-1.603c.085-.084.068-.219.101-.32.034-.101.102-.186.102-.287l-.135-2.092.389.473zm-9.136 221.167l.98 4.2.102.658.373 4.471.829 8.89-2.589 5.736c-.034.085 0 .169-.017.27-.017.085-.067.169-.05.27l.372 1.822c.05.22.169.388.321.506 0 0 0 .017.017.017l1.455 1.097h.017c.017 0 .017.017.017.017a.883.883 0 0 0 .49.151.867.867 0 0 0 .694-.337v-.017s.017 0 .017-.017l.102-.152 1.116 11.843-2.978.203c-.05 0-.067.05-.118.067-.05.017-.085-.017-.135 0l-2.081.81-.27-3.222c0-.034-.035-.034-.035-.068 0-.017.017-.033.017-.067l-1.1-4.724-.203-1.45.66-1.992c.017-.05-.017-.084-.017-.134.017-.051.051-.085.051-.135v-9.11l.372-11.793 1.59-7.81zm-4.213 32.205l.068.489c0 .017.017.017.017.034 0 .016-.017.033-.017.033l1.082 4.69.305 3.728-.203.101c-.017.017-.017.034-.034.034-.017.017-.034 0-.05.017L63 313.133l.135-2.177.965-5.415c0-.017-.017-.017 0-.034 0-.017.017-.017.017-.033l.321-3.189.846-.421zm1.742 27.093c.051.017.102.017.136.017.22 0 .423-.085.575-.237.068-.05.068-.118.102-.185.067-.101.152-.169.169-.304 0-.034-.017-.05-.017-.067 0-.034.034-.05.034-.068v-4.167l.913-4.301 1.421-1.603h1.49l1.285 1.113.118 9.937-.101 3.475-3.367.405-3.519.253c-.101.017-.169.084-.27.135-.085.034-.187.034-.271.101l-1.32 1.232-1.421-6.394 4.043.658zm-4.601 39.34l-5.871.254-3.976-.236-3.367-.607-.389-3.526 3.976 1.197c.085.034.17.034.254.034H58.6l5.244-.371c.034 0 .034-.034.051-.034.102-.017.22-.033.322-.084l1.742-1.012v2.108l-.44 1.637-1.252.169c-.016 0-.033.033-.05.033s-.034-.017-.051-.017l-1.742.456zM47.57 318.076l1.32 7.862-.474 4.875-1.066 7.372-.507 1.13-.745-2.918c-.016-.05-.067-.068-.084-.118-.017-.05 0-.101-.034-.135l-1.167-1.805.423-2.952.676-1.468c.034-.05-.017-.101.017-.152.017-.05.068-.084.068-.135l.727-8.738.542-4.353.304 1.535zm-3.18 50.223l-.965-4.977-1.573-9.312-.61-8.587v-.016l-.964-12.231.237-11.337.728-10.409 1.455-8.688.372-1.957c0 .068.05.101.068.169.034.118.05.202.118.287.068.084.152.135.254.202.068.034.084.118.17.135l1.065.32 1.015 6.512v.017l.457 2.666-1.201 9.582v.017c0 .017-.017.017-.017.017l-.71 8.587-.66 1.45c-.018.051 0 .085 0 .136-.018.05-.068.067-.068.1l-.474 3.392c-.017.101.05.185.068.287.017.1 0 .219.05.303l1.252 1.957 1.641 6.529-.236 4.2-.61 4.96c0 .034.034.05.034.084s-.033.051-.033.085l.49 7.54c0 .068.05.085.068.153.017.05-.017.1.017.151l1.167 2.548.575 5.095-3.18.033zm5.397 8.485l.71 3.256c0 .017.017.017.017.034v.034l1.472 4.976c0 .017.017.017.017.017v.017l1.827 5.23c.017.033.034.033.05.067.035.068.069.084.102.152a.836.836 0 0 0 .322.27c.034.017.05.05.084.067l.745.22-.136.151h-1.573l-1.573-.455-1.76-3.492-3.671-10.78.44.067h.118l2.809.17zm9.558.523h.051c.05 0 .085 0 .119-.017l2.25-.303-.643 2.598-1.557 4.656-2.639 4.825-.812.523-.778-.236-1.71-4.775-1.454-4.943-.61-2.75 7.783.422zm4.551-2.446c-.016 0-.033.017-.033.017-.017 0-.034-.017-.051-.017l-1.066.236-3.417.473-8.78-.473h-.052l-3.417-.236-1.827-.236-1.675-.253v-2.058l.084-2.295h8.663c.016 0 .016-.016.016-.016h.102l4.077.253h.085l5.972-.253h.017c.05 0 .101-.017.17-.034l1.657-.439 2.775.388.338.76.203 2.834-1.032.961h-.017l-2.792.388zm4.365-6.343c-.084-.068-.152-.135-.27-.152-.034-.017-.051-.05-.085-.05l-.744-.102.49-1.856c.017-.033-.017-.067-.017-.1.017-.051.051-.068.051-.102v-6.31c0-.05-.034-.067-.05-.1 0-.034.033-.068.016-.119l-.947-3.56-.355-4.908c0-.034-.034-.034-.034-.068-.017-.017.017-.05.017-.067l-1.083-4.775v-9.97l1.455-1.35 3.214-.219h.051l3.722-.438.457.455.085 1.67h-2.048c-.033 0-.033.017-.067.034-.017 0-.034-.017-.05-.017l-1.76.236h-.93c-.035 0-.052.034-.069.034-.033 0-.05-.017-.067-.017l-1.455.253c-.085.017-.102.085-.17.101-.067.034-.135.017-.202.051l-.982.725c-.034.017-.034.051-.05.085-.085.084-.119.168-.17.27-.05.101-.101.202-.101.303 0 .034-.034.051-.034.085l.254 4.133v.034l2.131 25.996c-.05-.135-.135-.152-.203-.185zm59.856-255.311s-.017.017 0 .017l1.32 4.639.118 2.446c0 .135.085.236.153.354.033.068.033.152.084.22l6.158 6.14.423 1.822c.034.101.102.152.153.236.034.051.017.102.05.152l5.127 5.5c-.068.034-.136.017-.203.067l-2.538 2.328c-.05.05-.034.102-.068.152s-.101.05-.118.101l-2.2 4.505c-.033.05 0 .101-.016.135-.017.05-.068.084-.085.152l-.49 5.094c-.018.068.05.102.05.17.017.067-.034.117-.017.185l1.337 4.015c.017.034.05.05.067.084s0 .05.017.085l.305.506-1.337-.102-4.77-3.137-4.84-3.864-5.735-5.364-4.196-5.736-2.757-5.028c-.017-.016-.017-.016-.034-.016v-.034l-2.369-3.762-1.015-4.589 3.688-9.717c.017-.034-.016-.068 0-.101.017-.034.051-.068.051-.101l1.574-12.265c0-.017-.017-.017 0-.034 0-.016.017-.016.017-.033l.609-9.346a.854.854 0 0 0-.813-.911c-.524-.119-.896.32-.93.81l-.61 9.345-1.556 12.13-3.739 9.87c-.016.016.017.033 0 .067 0 .017-.033.033-.033.05l-.119.49v.016c0 .017-.017.017-.017.017l-1.336 6.799c0 .017.017.034.017.05 0 .017-.017.034-.017.051l-.49 5.23c-.018.084.05.152.084.236.017.084-.017.169.017.253l2.08 3.93v2.7c0 .017.018.034.018.05 0 .017-.017.034-.017.051l.49 4.622c0 .034.034.051.051.085 0 .034-.017.05-.017.084l1.455 4.707 1.066 5.297-.592 5.736-1.557 5.145c-.017.05.017.084.017.118-.017.05-.05.068-.05.101l-.119 4.859c0 .017.017.017.017.017 0 .017-.017.017-.017.034l.118 4.183-.152 1.586-.626-.337-.423-.928-.237-3.728c0-.017-.033-.034-.033-.05 0-.018.016-.035.016-.051l-.727-4.134c-.017-.033-.034-.033-.05-.067 0-.034.016-.05.016-.068l-1.573-4.504c-.017-.05-.068-.05-.085-.084s0-.085-.034-.119l-.676-.961.592-7.102c0-.017-.017-.034-.017-.05 0-.018.017-.035.017-.052l-.119-5.23c0-.033-.034-.05-.034-.083-.016-.034.017-.068.017-.102l-1.455-5.887-.845-6.934.118-3.087 1.066-3.543c.017-.034-.017-.05-.017-.068.017-.033.034-.05.05-.084l.965-8.317 1.421-5.55 2.74-4.893c.018-.033 0-.067.018-.1.017-.052.067-.068.084-.119l1.59-7.035c0-.033-.016-.05-.016-.067s.034-.034.034-.068l.609-8.266c0-.034-.017-.05-.017-.068 0-.033.034-.05.017-.084l-.61-6.31c0-.05-.05-.067-.05-.117-.017-.034.017-.085 0-.119-.034-.067-.085-.084-.135-.134-.017-.034-.034-.085-.051-.102l.05-.033c.068-.034.085-.119.136-.17.084-.083.152-.15.186-.252.05-.101.05-.203.068-.304 0-.067.05-.135.033-.202l-3.519-15.774-1.133-7.507 2.91 1.637c.084.05.152.05.237.067.034.017.034.034.067.05l3.773.49c.034 0 .068.017.102.017h.017c.118 0 .253-.034.389-.085l.575-.286 2.504 1.35 3.333 1.94 2.25 3.812.457 2.244.964 9.801.372 8.823c0 .017.017.017.017.017v.017l.981 11.168c0 .033.034.033.034.067 0 .017-.017.05-.017.068l1.946 8.013c-.05-.05-.05-.05-.034-.05zM33.24 80.562l5.82-10.527c.017-.017 0-.017 0-.017 0-.017.017-.017.017-.017l3.418-6.933c.017.05.067.084.084.135.068.1.102.202.186.27.034.016.034.067.051.084l4.99 3.155a.899.899 0 0 0 .458.135c.067 0 .118-.017.203-.017l1.878-.422c-.051.101-.119.185-.119.304v2.226L47.942 79.28l-1.573 7-3.756 10.14v.034c0 .016-.017.016-.017.016l-2.538 8.435-3.756 8.334-1.793 3.83-.829 1.299c-.017.017 0 .033-.017.05s-.034.017-.034.034l-1.945 3.88c-.034.05 0 .101-.017.152-.017.05-.068.084-.085.135l-.474 4.859v.033l-.118 1.704c0 .017.017.017.017.017 0 .017-.017.017-.017.017l-.085 2.834-1.116-1.113c-.051-.05-.136-.05-.203-.085-.068-.033-.085-.1-.153-.135l-2.656-.843-2.064-.725c-.084-.034-.135.016-.22.016-.084-.016-.135-.067-.22-.05l-2.791.472c-.034.017-.05.05-.085.068-.034.017-.067-.017-.101 0l-2.572 1.096c-.05.017-.068.085-.101.101-.051.034-.102.017-.153.068l-2.74 2.632-.051-2.362.846-10.004.592-6.242 3.417-5.415v-.034s.017 0 .017-.017l4.382-7.777c.017-.017 0-.034.017-.05l.05-.051 4.027-10.072 4.213-10.999zm6.006 136.632v-.017l-2.927-8.367-3.654-10.662-1.794-7.187-1.082-9.245v-5.87l.693-8.014 3.84 2.294a.821.821 0 0 0 .44.118c.035 0 .068 0 .102-.017l.981-.118c.034 0 .051-.034.085-.034.085-.016.186-.033.27-.084l.779-.455 7.224 4.234h.017l3.198 1.89 3.468 3.323c.017.017.017 0 .034.017.017 0 .017.017.017.033l4.754 4.016c.017.016.034.016.05.016.018.017.018.034.035.051l4.99 3.273c.017 0 .017 0 .034.017.017 0 .017.017.017.017l5.482 3.154c.033.017.067.017.084.034l.05.05 4.383 1.586h.017l5.227 1.822c.051.017.085.017.136.017.016 0 .016.017.033.017l5.127.726c.034 0 .067 0 .101.016l15.244.237.592.927.609 1.114-.71 4.386c0 .017.016.034.016.05 0 .017-.017.034-.017.051l-.237 3.88c0 .034.017.05.017.068 0 .034-.017.05-.017.067l.61 6.445s0 .017.016.017l-.017.016.88 7.187-.05.017c-.085.034-.12.101-.17.152-.101.067-.17.101-.237.202a.649.649 0 0 0-.101.304c-.017.084-.085.135-.085.22l.203 3.002-.727.27c-.017 0-.017.017-.017.017-.085.034-.119.118-.203.169-.102.084-.237.152-.27.27 0 0-.018 0-.018.017l-.372.843c-.034.068.017.118 0 .169-.017.067-.068.1-.068.168v.49c0 .067.051.084.068.135.017.05-.034.1-.017.151l.372.979c0 .017.017.017.017.034.085.185.22.32.39.405l.05.05.643.287.507 4.504-2.96 3.864c-.017.016 0 .033-.017.033-.017.017-.017.017-.034.017l-5.126 8.014c-.017.017 0 .05-.017.067s-.034.017-.05.05l-4.755 10.207c-.017.017 0 .034 0 .034l-.034.034-3.198 8.604v-8.503l1.083-10.56 1.607-5.804 2.081.185h.085c.135 0 .27-.034.39-.084l1.945-.979c.05-.016.05-.067.084-.1.102-.068.153-.153.22-.254a.554.554 0 0 0 .119-.27c.017-.05.05-.067.05-.118l.373-8.62c0-.068-.051-.102-.051-.152-.017-.051.034-.102.017-.17l-1.709-4.976-.017-.016v-.017l-.981-2.548c0-.017-.017-.017-.017-.017-.05-.1-.135-.135-.203-.219-.085-.084-.152-.202-.27-.253l-.018-.017-2.2-.843c-.05-.017-.1.017-.151 0-.068-.017-.085-.068-.153-.068h-.609l-.727-4.302v-4.672c0-.085-.068-.152-.102-.237-.017-.084 0-.168-.05-.236l-1.337-2.075c0-.017-.017 0-.017-.017v-.034l-3.722-5.28-3.637-5.921c-.034-.068-.102-.068-.153-.102-.05-.05-.05-.118-.101-.151l-3.248-2.16-1.946-1.468c-.017-.016-.034 0-.05-.016-.018-.017-.018-.034-.035-.034-.084-.05-.169-.017-.27-.034-.119-.034-.237-.067-.339-.05-.084.016-.152.084-.237.134-.101.068-.22.085-.287.17-.017.016 0 .033-.017.05s-.034.017-.05.033l-.728 1.215c-.034.05-.017.118-.034.169-.034.067-.085.118-.102.185l-.372 3.88c0 .034.034.051.034.085 0 .034-.034.05-.034.084l.61 6.056.608 8.604v.017l.49 5.955v.017l.491 4.859c0 .017.017.033.017.05s-.017.034-.017.034l2.301 11.725.356 4.909v1.214l.237 7.49-.356 7.474-1.522 3.51v.016c0 .017-.017.017-.017.017l-.373.979c-.016.033.017.067 0 .1-.016.034-.05.051-.05.085l-.846 6.562-.119 1.063-1.928 9.548c-.017.034.017.051.017.085 0 .034-.034.05-.034.067l-.372 11.91v9.009l-.576 1.704-1.962 1.029-.914.405h-7.85l-6.564-.472-2.25-.473-.914-.27v-1.586l-.118-4.588v-2.463l-.237-8.941.355-4.218.372-4.622.728-10.173 1.455-9.312c0-.017-.017-.034-.017-.05 0-.018.017-.034.017-.051l.118-2.548c0-.067-.05-.1-.05-.152-.017-.05.033-.1.016-.151l-1.911-5.702-.237-7.17c0-.034-.034-.068-.05-.102 0-.033.016-.067.016-.084l-1.218-4.605v-.034l-4.754-16.398c.033 0 .017-.017.017-.017v.001zM74.25 376.75l-2.64 9.852-3.265 7.22-2.436 4.37-3.096 1.99-3.096.675-3.231.22-4.484-.675-2.977-1.654-3.604-5.55-.237-.709 2.115 2.278s.017 0 .017.017c0 0 0 .017.017.017l1.827 1.822c.068.067.186.067.27.1.085.052.153.119.254.136l2.318.253h.085a.993.993 0 0 0 .372-.084l2.064-.979c.017 0 .017-.034.034-.034.017-.017.034-.017.05-.017l2.572-1.568c.068-.034.068-.119.119-.17.034-.033.101-.033.135-.067l2.792-4.015c.016-.033 0-.05.016-.084.017-.034.068-.05.085-.084l2.927-7.288c.017-.017-.017-.034 0-.068.017-.033.034-.033.05-.067l1.439-6.09 2.131-.27h.017l1.168.523a.92.92 0 0 0 .355.084c.237 0 .423-.118.592-.27.017-.017.068-.017.085-.034l1.1-1.35c.067-.084.05-.185.084-.27.034-.084.118-.168.118-.27v-3.88c0-.016-.016-.016-.016-.033s.016-.017.016-.034l-2.317-28.156-.22-3.66.44-.321.54-.085 1.1 2.97c.068.168.17.286.305.388 0 0 0 .016.017.016h.017l2.064 1.451c.118.085.254.101.39.118.033 0 .05.034.084.034l2.927.118h.034c.135 0 .27-.034.389-.084l1.522-.76h1.641l-.27 2.447c0 .017.017.017.017.034 0 .016-.017.016-.017.033l-.254 5.18-.728 5.92-1.573 7.727v.017l-.017.017-2.233 12.653zm54.325-73.285l1.455 13.412 1.218 17.697v16.364l-.609 14.779-.727 15.655-1.202 11.792-2.131 7.727-2.775 4.605-2.098 1.57-3.57.219-4.212.017-1.963-1.03-2.47-2.918-.068-.202c.085.05.119.134.22.151l1.71.371a.696.696 0 0 0 .185.017h1.472c.085 0 .17-.017.254-.033l1.218-.372c.17-.05.27-.185.372-.303.034-.034.085-.017.102-.068l1.455-2.31c.017-.018 0-.035.017-.051.017-.034.033-.034.05-.068l1.455-3.39c.017-.035-.017-.068 0-.085.017-.034.051-.05.068-.085l.745-3.897c0-.016-.017-.016-.017-.016 0-.017.017-.017.017-.017l1.1-7.288c0-.017-.018-.017-.018-.034s.017-.034.017-.034l.49-7.524.61-7.76v-.034l.609-9.953c0-.017-.017-.017-.017-.034s.017-.017.017-.034l-.254-12.4v-.033l-.609-11.54-.118-3.019c0-.017-.017-.017-.017-.017 0-.017.017-.017.017-.034l-.119-1.316-.846-14.558c0-.017-.017-.017-.017-.034s.017-.017 0-.034l-1.708-14.323-.017-.016v-.017l-2.437-15.926c0-.017-.016-.017-.016-.033 0-.017.016-.034 0-.051l-1.828-7.271-.609-2.784c-.017-.05-.067-.067-.084-.118-.017-.05 0-.101-.017-.135l-1.574-2.682c-.05-.084-.135-.101-.203-.152-.067-.067-.084-.135-.152-.185l-1.472-.726c-.084-.034-.152 0-.237-.017-.101-.017-.169-.084-.287-.067l-1.574.253c-.067.017-.084.067-.135.084-.05.017-.118 0-.17.034l-1.826 1.097c-.068.05-.085.118-.136.185-.05.05-.118.05-.169.118l-2.2 3.644c-.033.05-.016.118-.033.169-.017.067-.085.118-.085.185l-.372 3.864-1.336 6.883c0 .034.016.05.016.084s-.033.05-.033.085l-.085 5.195-.372-7.018v-5.432l.71-6.528 2.048-6.208 1.32-3.594 1.167-2.412 2.351-.709 2.826-.236h.016c.034 0 .068 0 .085-.017l2.233-.438 2.369.64.237.153v.016l2.673 1.738 2.622 3.745 4.077 13.783 3.401 21.29zM79.888 27.528a.91.91 0 0 1-.86-.676.891.891 0 0 1 .636-1.073l1.981-.485c.034 0 .052.018.086.018.035 0 .035-.035.069-.035L84.917 25c.035 0 .052.035.086.035.035 0 .052-.035.086-.035l2.24.26c.051 0 .085.052.137.069.052.017.086 0 .138.017l2.101 1.004c.052.018.052.07.103.104.035.035.086.035.138.07l1.36 1.367c.052.052.052.139.087.208.034.069.12.104.138.19l.62 2.372c.034.086-.035.156-.035.242 0 .087.069.156.034.243l-.482 1.592-.999 3.74c-.034.086-.086.138-.137.207-.035.035-.018.104-.052.139l-1.188 1.42-.121.865h.396c.052 0 .086.052.138.07.052.016.103-.018.155 0l2.308.847.637.174.672-.174.637-.328c.051-.035.086 0 .138-.018.034-.017.051-.052.103-.069l1.274-.242.448-.173.052-.035.051-.139-.24-.554c-.018-.034.017-.051 0-.086-.035-.104-.018-.208 0-.329 0-.121 0-.225.051-.329.017-.035 0-.052.017-.087.052-.086.155-.103.224-.155.052-.07.086-.156.172-.19.035-.018.052.017.086 0 .104-.035.224-.018.345 0 .103 0 .207 0 .293.051.017.018.051 0 .086.018l.999.623c.12.069.137.19.206.277.052.086.138.12.173.225l.379 1.246c.12.468-.138.97-.603 1.108-.086.017-.173.035-.259.035-.292 0-.55-.19-.706-.45 0 .017 0 .017-.017.034l-.379.26c-.034.017-.069.017-.12.035-.018 0-.018.034-.052.052l-.62.242c-.052.017-.086.017-.138.034-.017 0-.017.018-.034.018l-1.24.225-.638.311c-.034.018-.068.018-.12.035-.017 0-.035.035-.052.035l-.999.26c-.086.017-.155.034-.224.034-.086 0-.155-.017-.24-.035l-.862-.26s0-.017-.017-.017c-.017-.017-.034-.017-.052-.017l-2.204-.814H88.31a.827.827 0 0 1-.655-.346c-.051-.069-.103-.086-.137-.156l-.12-.26c-.053-.086 0-.172-.018-.259-.017-.086-.086-.156-.069-.242l.258-1.87c.018-.087.086-.138.12-.208.035-.086.018-.19.087-.26l1.223-1.454.947-3.548s.017 0 .017-.018c.017 0 0 0 0-.017l.43-1.385-.499-1.887-1.085-1.09-1.825-.866-2.032-.225-2.928.242-1.93.485c-.068.017-.137.035-.206.035zm17.837 16.25a.875.875 0 0 0-.898-.54l-3.302.445H90.31l-2.784-.445c-.017 0-.017.016-.034.016s-.017-.016-.035-.016L84.968 43c-.052 0-.086.032-.121.032a.681.681 0 0 0-.346.11c-.086.048-.155.08-.224.128-.035.032-.104.032-.121.08-.052.063-.018.142-.052.206-.035.063-.087.095-.104.158 0 .048.035.08.035.111 0 .111.051.19.086.286.052.095.086.175.173.254.034.032.034.08.069.095l1.988 1.254c.035.016.07.016.086.032l.052.048 2.247.92c.087.032.156.032.243.048.017 0 .034.016.051.016l2.732.222h.086c.052 0 .087 0 .121-.016l1.746-.222c.017 0 .035-.016.052-.032.069-.016.12-.016.19-.032l1.746-.682c.017-.016.017-.032.052-.048.034-.016.052-.016.086-.032l1.746-1.031c.415-.238.536-.746.277-1.127-.07.032-.104.032-.139 0zm-5.894 1.635l-1.02-.08h1.677l-.657.08zm-2.507-.207l-.052-.016.19.032-.138-.016zm4.773 2.797c.481-.086.85.31.898.792.049.482-.288.912-.738.964L91.834 50h-.08c-.064 0-.112 0-.177-.017l-2.086-.5c-.016 0-.016-.017-.032-.017s-.048 0-.08-.017l-1.846-.74c-.417-.172-.641-.689-.481-1.137.16-.447.626-.688 1.06-.516l1.796.723 1.894.465 2.295-.241zM85.62 31h-2.615c-.082 0-.148-.014-.231-.029l-2.151-.518c-.463-.1-.712-.517-.596-.906.133-.402.596-.632 1.043-.517l2.018.489h2.449l1.473-.202c.463-.086.91.202.976.604.083.417-.232.791-.695.849l-1.539.216c-.05.014-.083.014-.132.014zm10.206-.114c-.5-.032-.875-.439-.822-.894a.888.888 0 0 1 1-.763l1.375.113h3.304l1.16-.308c.483-.13.983.13 1.125.568.125.44-.142.894-.625 1.024l-1.285.342c-.107.016-.179.032-.268.032h-3.554l-1.41-.114z" fill="#30343E" fill-rule="evenodd"/></svg>