<svg id="Layer_1" xmlns="http://www.w3.org/2000/svg" width="180" height="50"><style>.st0{fill:#2c2f38}</style><g id="Page-1"><g id="Logo-example-4"><path id="Mono" class="st0" d="M42.9 32.2l-.1-16.7-8.1 13.7h-4l-8-13.2v16.3h-8.3V.6h7.4l11.1 18.3L43.7.6h7.4v31.6h-8.2zm30.5.6c-3.3 0-6.4-.7-9-2.1-2.6-1.4-4.7-3.4-6.3-5.8-1.5-2.4-2.3-5.3-2.3-8.5s.8-5.9 2.3-8.5c1.5-2.5 3.6-4.4 6.3-5.8S70 0 73.4 0s6.4.7 9 2.1c2.6 1.3 4.7 3.3 6.2 5.8 1.4 2.5 2.3 5.3 2.3 8.5s-.8 5.9-2.3 8.5c-1.5 2.5-3.6 4.4-6.3 5.8-2.6 1.3-5.6 2.1-8.9 2.1zm0-7.4c1.5 0 3.1-.3 4.3-1.1 1.3-.8 2.3-1.8 3.1-3.2.8-1.4 1.1-3 1.1-4.7s-.3-3.3-1.1-4.7c-.8-1.5-1.8-2.4-3.1-3.2S75 7.4 73.4 7.4c-1.5 0-3.1.3-4.3 1.1-1.3.8-2.3 1.8-3.1 3.2-.8 1.3-1.1 3-1.1 4.7s.3 3.3 1.1 4.7c.8 1.3 1.8 2.4 3.1 3.2 1.2.7 2.7 1.1 4.3 1.1zM125.7.6v31.6h-7.4l-14-16.9v16.9h-8.8V.6h7.4l14 16.9V.6h8.8zM148 32.8c-3.3 0-6.4-.7-9-2.1-2.6-1.4-4.7-3.4-6.3-5.8-1.5-2.4-2.3-5.3-2.3-8.5s.8-5.9 2.3-8.5c1.5-2.5 3.6-4.4 6.3-5.8 2.6-1.4 5.6-2.1 9-2.1 3.3 0 6.4.7 9 2.1 2.6 1.4 4.7 3.4 6.3 5.8 1.5 2.4 2.3 5.3 2.3 8.5s-.8 5.9-2.3 8.5c-1.5 2.5-3.6 4.4-6.3 5.8-2.7 1.3-5.7 2.1-9 2.1zm0-7.4c1.5 0 3.1-.3 4.3-1.1 1.3-.8 2.3-1.8 3.1-3.2.8-1.3 1.1-3 1.1-4.7s-.3-3.3-1.1-4.7c-.8-1.3-1.8-2.4-3.1-3.2-1.3-.8-2.8-1.1-4.3-1.1s-3.1.3-4.3 1.1c-1.3.8-2.3 1.8-3.1 3.2-.8 1.3-1.1 3-1.1 4.7s.3 3.3 1.1 4.7c.8 1.3 1.8 2.4 3.1 3.2 1.2.7 2.6 1.1 4.3 1.1z"/><path id="Brand-Tagline" class="st0" d="M21.3 44.9c.4.2.9.4 1.2.9s.4.9.4 1.4c0 .8-.3 1.4-1 1.9-.6.4-1.5.7-2.8.7h-4.7v-9.3H19c1.1 0 2 .2 2.6.7.7.4.9 1 .9 1.8 0 .4-.1.9-.3 1.2-.2.3-.5.5-.9.7zm-4.7-2.7v2.2h2.1c.6-.1 1-.1 1.3-.3.2-.2.4-.4.4-.8s-.2-.7-.4-.9c-.2-.2-.7-.2-1.2-.2h-2.2zm2.5 5.9c.6 0 1-.1 1.3-.3.3-.2.4-.4.4-.9 0-.8-.6-1.1-1.7-1.1h-2.6v2.3h2.6zm14.2 1.7l-1.8-2.5h-2v2.5h-2.1v-9.3h4c.8 0 1.5.1 2.1.4.6.3 1.1.7 1.4 1.2.3.6.4 1.1.4 1.8s-.1 1.3-.4 1.8c-.3.6-.8.9-1.4 1.1l2.1 3h-2.3zm0-6c0-.6-.2-.9-.6-1.2-.3-.3-.8-.4-1.4-.4h-1.8v3.2h1.8c.7 0 1.1-.1 1.4-.4.4-.4.6-.6.6-1.2zm12.8 4h-4.3l-.8 2h-2.2l4.1-9.3H45l4.2 9.3H47l-.9-2zm-.6-1.7L44 42.6l-1.4 3.5h2.9zm16-5.6v9.3h-1.8l-4.6-5.6v5.6H53v-9.3h1.8l4.6 5.6v-5.6h2.1zm5.1 0h4.2c1 0 1.9.2 2.6.6.8.3 1.3.9 1.8 1.7.4.7.7 1.5.7 2.4 0 .9-.2 1.8-.7 2.4s-1 1.2-1.8 1.7c-.8.3-1.7.6-2.6.6h-4.2v-9.4zm4.1 7.5c.9 0 1.7-.2 2.2-.8.6-.6.9-1.2.9-2.1 0-.9-.2-1.5-.9-2.1-.7-.6-1.3-.8-2.2-.8h-2V48h2zm18.1-5.7h-3v-1.8h8v1.8h-3v7.5h-2.1c.1 0 .1-7.5.1-7.5zm14.8 5.5h-4.3l-.8 2h-2.2l4.1-9.3h2.1l4.2 9.3h-2.2l-.9-2zm-.7-1.7l-1.4-3.5-1.4 3.5h2.8zm13.7-1.1h2v3.7c-.6.3-1.1.7-1.8.9s-1.3.3-2 .3c-1 0-1.9-.2-2.6-.7-.8-.4-1.3-1-1.8-1.7-.4-.8-.7-1.5-.7-2.4 0-.9.2-1.8.7-2.4.4-.7 1-1.3 1.9-1.7.9-.3 1.7-.7 2.6-.7.8 0 1.5.1 2.2.4.7.2 1.2.7 1.7 1.2l-1.3 1.3c-.7-.7-1.4-1-2.4-1-.6 0-1.1.1-1.5.3s-.8.6-1.1 1c-.3.4-.3 1-.3 1.5 0 .6.1 1.1.3 1.5.2.4.7.8 1.1 1.1.4.2 1 .3 1.5.3.7 0 1.2-.1 1.7-.4V45h-.2zm6.8-4.5h2.1V48h4.6v1.8h-6.8v-9.3h.1zm10.9 0h2.1v9.3h-2.1v-9.3zm15.7 0v9.3h-1.8l-4.6-5.6v5.6h-2.1v-9.3h1.8l4.6 5.6v-5.6h2.1zm12.2 7.5v1.8H155v-9.3h6.9v1.8h-4.8v2h4.3V46h-4.3v2h5.1z"/></g></g></svg>