<svg id="Layer_1" xmlns="http://www.w3.org/2000/svg" width="180" height="50"><style>.st0{fill:#2c2f38}</style><g id="Page-1"><g id="Logo-example-2"><path id="Combined-Shape" class="st0" d="M62.1 13.8s2.8.4 2.2 2.2c-.5 1.6-.8 5.7-12.5 6.6-11.7.9-17.5 5.6-18.4 12.6-.9 7 5 11.6 11.5 12.1h.2c1.2.1 1.3 1.8.1 2-3.9.7-8.7.8-13.8-.8-11.7-3.6-15.5-11.8-14.7-21 0 0-1.1 1.4-1.6 3.5 0 0-1.1-7.4 2.6-12.5 0 0-1.6 1-2.6 2.5 0 0 1.2-5.9 6.6-9.7C27 7.6 33.8 6.4 33.8 6.4s.3-3.6 5-6c.3-.2.7.1.7.5-.2 1.7.3 4.3 2 5.6 0 0 6.4.3 9.2 2.9 2.8 2.5 11.4 4.4 11.4 4.4zm.4 1.1l-.9-.1c.1.3.2 1 .7 1.4.2.1.6.3.9.2.1-.3.2-.5.3-.7.3-.6-1-.8-1-.8zm-12.4 3.5c-3.5-.9-13.5-1.9-18.4 2.8l-.7.7c-1.7 1.8-3.5 4.7-4.2 9 0 0 .6-1 1.6-2.3-.4 4.4 1 9.2 4 11.7 0 0-1.5-2.3-.7-6.5 1.3-6.9 6.7-11.7 18.4-12.6 4.3-.3 7-.6 8.8-1.5-.2.2-5.8-.5-8.8-1.3z"/><g id="Group-4" transform="translate(55 13)"><path id="WOLVES" class="st0" d="M41.2 5.3l-7.3 14h-5.1l-.8-7.4-3.8 7.4h-5.1l-1.7-14h4.7l.9 8 4.2-8h4.3l.8 8.1 4.2-8.1h4.7zm6 14.3c-1.4 0-2.7-.3-3.8-.8-1.1-.5-1.9-1.3-2.5-2.2-.6-.9-.9-2-.9-3.3 0-1.6.4-3.1 1.1-4.4s1.8-2.3 3.1-3c1.5-.6 3-.9 4.7-.9 1.4 0 2.7.3 3.8.8 1 .5 1.8 1.2 2.4 2.2s.9 2 .9 3.3c0 1.6-.4 3.1-1.1 4.3-.8 1.3-1.8 2.3-3.1 3-1.4.7-2.9 1-4.6 1zm.4-3.8c.7 0 1.4-.2 1.9-.6.6-.4 1-.9 1.3-1.6s.4-1.4.4-2.1c0-.8-.2-1.5-.7-2-.5-.5-1.2-.7-2-.7-.7 0-1.4.2-2 .6-.6.4-1 .9-1.3 1.6s-.4 1.4-.4 2.1c0 .8.2 1.5.7 2s1.2.7 2.1.7zM59 5.3h4.7l-2.1 10.3H68l-.7 3.7h-11l2.7-14zm26.4 0l-8.7 14h-4.6L69 5.3h4.8l1.7 8.2 5.1-8.2h4.8zm4.4 3.6l-.3 1.6h5.9l-.7 3.4h-5.9l-.4 1.8h7l-.7 3.6H83.1l2.8-14h11.4l-.7 3.6h-6.8zm12.3 10.7c-1.2 0-2.4-.1-3.4-.4-1.1-.3-1.9-.6-2.6-1l1.8-3.5c1.5.9 3.1 1.3 4.7 1.3.6 0 1.1-.1 1.4-.2.3-.1.5-.3.5-.6 0-.2-.2-.4-.5-.6s-.8-.3-1.6-.5c-.9-.2-1.7-.5-2.3-.7s-1.1-.6-1.6-1.1c-.5-.5-.7-1.2-.7-2 0-1.1.3-2 .8-2.8.6-.8 1.4-1.4 2.4-1.8 1.1-.4 2.3-.7 3.8-.7 1 0 2 .1 2.9.3.9.2 1.7.5 2.3.9l-1.7 3.4c-.5-.3-1.1-.6-1.8-.8-.7-.2-1.3-.3-2-.3s-1.2.1-1.5.3-.5.4-.5.7c0 .3.2.5.5.6s.9.3 1.6.5c.9.2 1.7.4 2.3.7.6.2 1.2.6 1.6 1.1.5.5.7 1.2.7 2 0 1-.3 2-.9 2.7-.6.8-1.4 1.4-2.5 1.8-1 .5-2.2.7-3.7.7z"/><path id="partners-_x26_-co" class="st0" d="M20.6 25c.6 0 1.1.1 1.6.3.5.2.8.5 1 .9.2.4.4.8.4 1.3s-.1.9-.4 1.3c-.2.4-.6.7-1 .9s-1 .3-1.6.3H19v2h-1.3v-7h2.9zm-.1 3.9c.6 0 1-.1 1.3-.4s.4-.6.4-1-.1-.8-.4-1c-.3-.2-.7-.4-1.3-.4H19v2.8h1.5zm9 1.5H26l-.7 1.6H24l3.1-7h1.3l3.2 7h-1.4l-.7-1.6zm-.4-1l-1.3-3.1-1.3 3.1h2.6zm8 2.6l-1.4-2H33.8v2h-1.3v-7h2.9c.6 0 1.1.1 1.6.3.5.2.8.5 1 .9s.4.8.4 1.3-.1 1-.4 1.4c-.3.4-.6.7-1.1.9l1.6 2.3h-1.4zm-.1-4.5c0-.4-.1-.8-.4-1-.3-.2-.7-.4-1.3-.4h-1.5v2.8h1.5c.6 0 1-.1 1.3-.4.3-.2.4-.6.4-1zm4.2-1.4h-2.3V25h5.9v1.1h-2.3V32h-1.3v-5.9zM52 25v7h-1l-3.9-4.7V32h-1.3v-7h1.1l3.9 4.7V25H52zm7.2 5.9V32h-5.3v-7H59v1.1h-3.8v1.8h3.4V29h-3.4v1.9h4zm6 1.1l-1.4-2H61.9v2h-1.3v-7h2.9c.6 0 1.1.1 1.6.3.5.2.8.5 1 .9.2.4.4.8.4 1.3s-.1 1-.4 1.4c-.3.4-.6.7-1.1.9l1.6 2.3h-1.4zm0-4.5c0-.4-.1-.8-.4-1-.3-.2-.7-.4-1.3-.4H62v2.8h1.5c.6 0 1-.1 1.3-.4.2-.2.4-.6.4-1zm4.9 4.6c-.5 0-1.1-.1-1.6-.2-.5-.2-.9-.4-1.2-.6l.4-1c.3.2.6.4 1.1.6.4.1.8.2 1.3.2s.9-.1 1.2-.3.4-.4.4-.7c0-.2-.1-.4-.2-.5-.1-.1-.3-.2-.5-.3s-.5-.2-.9-.3c-.5-.1-1-.3-1.3-.4s-.6-.3-.8-.6c-.2-.3-.4-.6-.4-1.1 0-.4.1-.7.3-1.1.2-.3.5-.6 1-.8.4-.2.9-.3 1.6-.3.4 0 .8.1 1.3.2.4.1.8.3 1.1.5l-.4 1c-.3-.2-.6-.3-1-.4-.3-.1-.7-.1-1-.1-.5 0-.9.1-1.1.3s-.4.4-.4.7c0 .2.1.4.2.5s.3.2.5.3.5.2.9.3c.5.1.9.2 1.3.4.3.1.6.3.9.6.2.3.4.6.4 1.1 0 .4-.1.7-.3 1-.2.3-.5.6-1 .8-.7.1-1.2.2-1.8.2zm12.1 0l-.9-.9c-.7.6-1.4.8-2.4.8-.5 0-.9-.1-1.3-.2-.4-.2-.7-.4-.9-.7s-.3-.6-.3-1 .1-.8.4-1.1c.3-.3.7-.7 1.2-1-.3-.3-.5-.5-.6-.8-.1-.2-.2-.5-.2-.8 0-.5.2-.9.6-1.2s.9-.5 1.5-.5 1 .1 1.4.4c.3.3.5.7.5 1.1 0 .4-.1.7-.3 1s-.6.6-1.1.9l1.5 1.4c.2-.3.3-.7.4-1.2l1 .3c-.1.6-.3 1.2-.6 1.6l.9.8-.8 1.1zm-2.9-6.3c-.3 0-.5.1-.7.2-.2.1-.2.3-.2.5s0 .3.1.5c.1.1.3.3.5.6.4-.2.7-.4.8-.6s.2-.3.2-.5-.1-.4-.2-.5-.2-.2-.5-.2zm-.2 5.3c.6 0 1.1-.2 1.5-.5l-1.8-1.8c-.4.2-.7.4-.8.6-.2.2-.2.4-.2.7 0 .3.1.5.4.7.1.2.4.3.9.3zm10.9 1c-.7 0-1.3-.2-1.9-.5-.6-.3-1-.7-1.3-1.3s-.5-1.2-.5-1.9.2-1.3.5-1.9.8-1 1.3-1.3c.6-.3 1.2-.5 1.9-.5.6 0 1.1.1 1.6.3.5.2.9.5 1.2.9l-.8 1c-.5-.5-1.1-.8-1.9-.8-.5 0-.9.1-1.3.3-.4.2-.7.5-.9.9-.2.4-.3.8-.3 1.3s.1.9.3 1.3c.2.4.5.7.9.9.4.2.8.3 1.3.3.7 0 1.4-.3 1.9-.8l.8.8c-.3.4-.7.7-1.2.9s-1 .1-1.6.1zm7.3 0c-.7 0-1.4-.2-1.9-.5s-1-.7-1.3-1.3c-.3-.6-.5-1.2-.5-1.8s.2-1.3.5-1.8c.3-.6.8-1 1.3-1.3s1.2-.5 1.9-.5 1.4.2 1.9.5 1 .7 1.3 1.3.5 1.2.5 1.9-.2 1.3-.5 1.9-.8 1-1.3 1.3-1.2.3-1.9.3zm0-1.1c.5 0 .9-.1 1.3-.3.4-.2.7-.5.9-.9s.3-.8.3-1.3-.1-.9-.3-1.3-.5-.7-.9-.9c-.4-.2-.8-.3-1.3-.3s-.9.1-1.3.3-.7.5-.9.9-.3.8-.3 1.3.1.9.3 1.3.5.7.9.9.9.3 1.3.3z"/></g></g></g></svg>