<svg id="Layer_1" xmlns="http://www.w3.org/2000/svg" width="216" height="50"><style>.st0{fill:#2c2f38}</style><g id="Page-1"><g id="Logo-example-8"><g id="Group-12"><path id="Combined-Shape" class="st0" d="M0 3.8c0-4.3 7.3-5.4 8.1-1 2.4 13.9 2.3 28.8 1 42.8-.4 4.6-7.5 4.6-7.6-.1C1.1 31.6.1 17.7 0 3.8zm20-.3c.1-4 6.6-5 7.4-.9 2.7 14.2 2.9 29.8 2.3 44.2-.2 4.4-6.6 4.1-7-.1-1.4-14.1-3-29-2.7-43.2zm20.3 1.1c.2-3.9 7.4-5.1 8.2-.9 2.3 11.8 1.8 25.3-.4 37-.7 3.9-7.3 2.6-7.5-1-.4-11.5-1-23.6-.3-35.1z"/></g><g id="Group-13" transform="translate(64 5)"><path id="Fill-162" class="st0" d="M8.8 5.6H5.7v11.8c3.6 0 7.6-.3 8.6-4.5.9-3.7-1.8-7.2-5.5-7.3zM16.3 3c3.8 3.5 4.8 9.2 2.5 13.8C15 24.1 6.9 22.9 0 22.9V0h5.7c3.9 0 7.5.2 10.6 3z"/><path id="Fill-163" class="st0" d="M22 22h6V0h-6z"/><path id="Fill-164" class="st0" d="M40.3 4.5h-5.2v4.7h5.2c1.2-.1 2.1-1.1 2.1-2.4 0-1.2-.9-2.2-2.1-2.3zM48 22h-5.6l-3.5-8.3h-3.6V22H30V0h10.5c3.8 0 6.9 3.1 6.9 6.8 0 2.4-1.2 4.5-3.1 5.8L48 22z"/><path id="Fill-165" class="st0" d="M67 22H51V0h15.7v4.8H57v3.8h8.2v4.8H57v3.8h10V22"/><path id="Fill-166" class="st0" d="M85 15.7l4 3.9c-2.1 2.1-5 3.4-8.3 3.4C74.2 23 69 17.9 69 11.5S74.2 0 80.7 0c3.2 0 6.2 1.3 8.3 3.4l-4 3.9c-1.1-1.1-2.6-1.7-4.3-1.7-3.3 0-6 2.7-6 6 0 3.2 2.7 5.9 6 5.9 1.7-.1 3.2-.7 4.3-1.8"/><path id="Fill-167" class="st0" d="M107 5.6h-5.7V22h-5.6V5.6H90V0h17v5.6"/><path id="Fill-168" class="st0" d="M126.4 11.5c0-3.3-2.7-6-5.9-5.9-3.3 0-6 2.7-6 6 0 3.2 2.7 5.9 6 5.9 3.3-.1 5.9-2.7 5.9-6zm5.6 0c0 6.3-5.1 11.5-11.5 11.5S109 17.9 109 11.5 114.1 0 120.5 0 132 5.1 132 11.5z"/><path id="Fill-169" class="st0" d="M144.3 4.5h-5.2v4.7h5.2c1.2-.1 2.1-1.1 2.1-2.4 0-1.2-.9-2.2-2.1-2.3zM152 22h-5.6l-3.5-8.3h-3.6V22H134V0h10.5c3.8 0 6.9 3.1 6.9 6.8 0 2.4-1.2 4.5-3.1 5.8L152 22z"/></g><path id="Brand-Tagline" class="st0" d="M65.2 45c-.1 0-.1 0-.2-.1s-.1-.1-.1-.2v-7.8c0-.1 0-.2.1-.2.1-.1.1-.1.2-.1h3.5c.9 0 1.6.2 2.1.6.5.4.7 1 .7 1.7 0 .4-.1.8-.3 1.1-.2.3-.4.5-.7.6.3.2.6.4.9.7.2.3.3.7.3 1.2 0 .7-.3 1.3-.8 1.8s-1.2.7-2.1.7h-3.6zm3.3-5c.4 0 .7-.1.9-.3.2-.2.3-.5.3-.8 0-.3-.1-.6-.3-.8-.2-.2-.5-.3-.9-.3h-1.9V40h1.9zm.1 3.7c.4 0 .7-.1 1-.3.2-.2.3-.5.3-.9s-.1-.6-.4-.9c-.2-.2-.6-.3-1-.3h-2v2.4h2.1zm5.9 1.3c-.1 0-.1 0-.2-.1s-.1-.1-.1-.2v-7.8c0-.1 0-.2.1-.2.1-.1.1-.1.2-.1h3.1c1 0 1.8.2 2.3.7.6.5.8 1.1.8 1.9 0 .6-.1 1.1-.4 1.5-.3.4-.7.7-1.2.9l1.7 3.1v.1c0 .1 0 .1-.1.2h-1.1c-.1 0-.2 0-.3-.1l-.2-.2-1.5-2.8H76v2.9c0 .1 0 .1-.1.2s-.2 0-.3 0h-1.1zm3-4.5c.5 0 .8-.1 1.1-.3.3-.2.4-.5.4-.9s-.1-.7-.4-.9-.6-.3-1.1-.3h-1.7v2.5l1.7-.1zm5.3 4.5c-.1 0-.1 0-.2-.1 0 0-.1-.1-.1-.2v-.1l2.9-7.7c.1-.2.2-.3.4-.3h1.3c.2 0 .4.1.4.3l2.9 7.7v.1c0 .1 0 .1-.1.2-.1 0-.1.1-.2.1H89c-.2 0-.3-.1-.3-.2l-.6-1.5h-3.6l-.6 1.5c.2.1.1.2-.1.2h-1zm2.3-3.1h2.7l-1.4-3.7-1.3 3.7zm7.8 3.1c-.1 0-.1 0-.2-.1s-.1-.1-.1-.2v-7.8c0-.1 0-.2.1-.2.1-.1.1-.1.2-.1h.9c.2 0 .3.1.3.2l3.4 5.3v-5.2c0-.1 0-.2.1-.2s.1-.1.2-.1h1c.1 0 .2 0 .2.1.1.1.1.1.1.2v7.8c0 .1 0 .2-.1.2.1.1 0 .1-.1.1H98c-.2 0-.3-.1-.4-.2l-3.4-5.2v5.1c0 .1 0 .1-.1.2 0 .1-.1.1-.2.1h-1zm9.5 0c-.1 0-.1 0-.2-.1s-.1-.1-.1-.2v-7.8c0-.1 0-.2.1-.2.1-.1.1-.1.2-.1h2.9c2.4 0 3.6 1.1 3.6 3.3v1.8c0 1.1-.3 1.9-.9 2.5-.6.5-1.5.8-2.6.8h-3zm2.9-1.4c.7 0 1.1-.1 1.4-.4.3-.3.5-.8.5-1.5v-.9-.9c0-.7-.2-1.1-.5-1.4-.3-.3-.8-.5-1.5-.5h-1.5v5.6h1.6zm11.8 1.4c-.1 0-.1 0-.2-.1s-.1-.1-.1-.2v-6.6h-2.2c-.1 0-.1 0-.2-.1s-.1-.1-.1-.2v-.9c0-.1 0-.2.1-.2.1-.1.1-.1.2-.1h6.1c.1 0 .2 0 .2.1.1.1.1.1.1.2v.9c0 .1 0 .2-.1.2-.1.1-.1.1-.2.1h-2.2v6.6c0 .1 0 .1-.1.2s-.1.1-.2.1h-1.1zm4.7 0c-.1 0-.1 0-.2-.1 0 0-.1-.1-.1-.2v-.1l2.9-7.7c.1-.2.2-.3.4-.3h1.3c.2 0 .4.1.4.3l2.9 7.7v.1c0 .1 0 .1-.1.2-.1 0-.1.1-.2.1H128c-.2 0-.3-.1-.3-.2l-.6-1.5h-3.6l-.6 1.5c-.1.2-.2.2-.3.2h-.8zm2.4-3.1h2.7l-1.4-3.7-1.3 3.7zm10.6 3.2c-1.1 0-2-.3-2.6-.9-.6-.6-.9-1.4-1-2.4v-1.1-1.1c0-1 .4-1.8 1-2.3.6-.6 1.5-.8 2.6-.8.7 0 1.4.1 1.9.4.5.3.9.6 1.2.9.3.4.4.7.4 1.1 0 .1 0 .1-.1.2 0 0-.1.1-.2.1h-1.5s-.1-.1-.1-.2c-.1-.3-.3-.5-.6-.8-.3-.2-.7-.3-1.1-.3-.6 0-1 .2-1.3.5-.3.3-.5.8-.5 1.4V42c0 .6.2 1.1.5 1.4.3.3.8.5 1.3.5.6 0 1-.2 1.4-.5.3-.3.5-.8.5-1.4v-.4h-1.5c-.1 0-.1 0-.2-.1s-.1-.1-.1-.2v-.7c0-.1 0-.1.1-.2s.1-.1.2-.1h2.9c.1 0 .2 0 .2.1.1.1.1.1.1.2v1.3c0 .7-.1 1.2-.4 1.7-.3.5-.7.9-1.3 1.1-.4.3-1.1.4-1.8.4zm6.4-.1c-.1 0-.1 0-.2-.1s-.1-.1-.1-.2v-7.8c0-.1 0-.2.1-.2.1-.1.1-.1.2-.1h1.1c.1 0 .2 0 .2.1.1.1.1.1.1.2v6.7h3.8c.1 0 .2 0 .2.1.1.1.1.1.1.2v.9c0 .1 0 .1-.1.2s-.1.1-.2.1l-5.2-.1zm8 0c-.1 0-.1 0-.2-.1s-.1-.1-.1-.2v-7.8c0-.1 0-.2.1-.2.1-.1.1-.1.2-.1h1.2c.1 0 .2 0 .2.1.1.1.1.1.1.2v7.8c0 .1 0 .1-.1.2s-.1.1-.2.1h-1.2zm4.6 0c-.1 0-.1 0-.2-.1s-.1-.1-.1-.2v-7.8c0-.1 0-.2.1-.2.1-.1.1-.1.2-.1h.9c.2 0 .3.1.3.2l3.4 5.3v-5.2c0-.1 0-.2.1-.2.1-.1.1-.1.2-.1h1c.1 0 .2 0 .2.1.1.1.1.1.1.2v7.8c0 .1 0 .2-.1.2-.1.1-.1.1-.2.1h-.9c-.2 0-.3-.1-.4-.2l-3.4-5.2v5.1c0 .1 0 .1-.1.2s-.1.1-.2.1h-.9zm9.5 0c-.1 0-.1 0-.2-.1s-.1-.1-.1-.2v-7.8c0-.1 0-.2.1-.2.1-.1.1-.1.2-.1h5.3c.1 0 .2 0 .2.1.1.1.1.1.1.2v.8c0 .1 0 .2-.1.2-.1.1-.1.1-.2.1h-3.9v2.1h3.7c.1 0 .2 0 .2.1.1.1.1.1.1.2v.8c0 .1 0 .2-.1.2-.1.1-.1.1-.2.1h-3.7v2.2h4c.1 0 .2 0 .2.1.1.1.1.1.1.2v.8c0 .1 0 .2-.1.2-.1.1-.1.1-.2.1l-5.4-.1z"/></g></g></svg>