<svg id="Layer_1" xmlns="http://www.w3.org/2000/svg" width="180" height="50"><style>.st0{fill:#2c2f38}</style><g id="Page-1"><g id="Logo-example-3"><path id="MONOGRAMS" class="st0" d="M41.7 49.8c-.1 0-.2 0-.2-.1-.1-.1-.1-.1-.1-.2v-8.6c0-.1 0-.2.1-.2.1-.1.1-.1.2-.1h1.1c.2 0 .3.1.4.2l2.5 4.8 2.5-4.8c.1-.2.2-.2.4-.2h1c.1 0 .2 0 .2.1.1.1.1.1.1.2v8.6c0 .1 0 .2-.1.2 0 .1-.1.1-.2.1h-1.1c-.1 0-.2 0-.2-.1-.1-.1-.1-.1-.1-.2v-5.7l-1.8 3.4c-.1.2-.2.3-.4.3h-.6c-.2 0-.3-.1-.4-.3l-1.8-3.4v5.7c0 .1 0 .2-.1.2-.1.1-.2.1-.3.1h-1.1zm15.7.2c-1.2 0-2.1-.3-2.8-.9-.7-.6-1-1.5-1-2.7v-1.1-1.1c0-1.2.4-2 1.1-2.7.7-.7 1.6-.9 2.7-.9s2.1.3 2.7.9c.7.6 1 1.5 1.1 2.7v2.2c0 1.2-.4 2.1-1 2.7-.7.5-1.7.9-2.8.9zm0-1.6c.6 0 1-.2 1.4-.5.3-.3.5-.9.5-1.6v-1.1-1.1c0-.7-.2-1.2-.6-1.6-.4-.4-.8-.5-1.4-.5s-1 .2-1.4.5c-.3.4-.5.9-.5 1.6v2.2c0 .7.2 1.2.5 1.6.4.3.9.5 1.5.5zm7.6 1.4c-.1 0-.2 0-.2-.1-.1-.1-.1-.1-.1-.2v-8.6c0-.1 0-.2.1-.2.1-.1.1-.1.2-.1h1c.2 0 .3.1.4.2l3.8 5.9v-5.8c0-.1 0-.2.1-.2.1-.1.1-.1.2-.1h1.1c.1 0 .2 0 .2.1.1.1.1.1.1.2v8.6c0 .1 0 .2-.1.2 0 .1-.1.1-.1.1h-1c-.2 0-.3-.1-.4-.2L66.5 44v5.7c0 .1 0 .2-.1.2H65zm14.3.2c-1.2 0-2.1-.3-2.8-.9s-1-1.5-1-2.7v-1.1-1.1c0-1.2.4-2 1.1-2.7.7-.7 1.6-.9 2.7-.9s2.1.3 2.7.9c.6.6 1 1.5 1.1 2.7v2.2c0 1.2-.4 2.1-1 2.7-.7.5-1.6.9-2.8.9zm0-1.6c.6 0 1-.2 1.4-.5.4-.3.5-.9.5-1.6v-1.1-1.1c0-.7-.2-1.2-.6-1.6-.3-.4-.8-.5-1.4-.5-.6 0-1 .2-1.4.5-.4.3-.5.9-.5 1.6v2.2c0 .7.2 1.2.5 1.6s.9.5 1.5.5zm11 1.6c-1.2 0-2.1-.3-2.8-.9-.7-.6-1-1.5-1.1-2.6v-1.2-1.2c0-1.1.4-1.9 1.1-2.5.7-.6 1.6-.9 2.8-.9.8 0 1.5.1 2.1.4.6.3 1 .6 1.3 1 .3.4.5.8.5 1.2 0 .1 0 .1-.1.2s-.1.1-.2.1h-1.4c-.1 0-.2 0-.2-.1 0 0-.1-.1-.1-.2-.1-.3-.3-.6-.6-.8-.3-.2-.7-.3-1.2-.3-.6 0-1.1.2-1.4.5s-.5.8-.5 1.5v2.2c0 .7.2 1.2.5 1.6.3.3.8.5 1.4.5s1.1-.2 1.5-.5c.4-.3.6-.8.6-1.5V46h-1.8c-.1 0-.2 0-.2-.1-.1-.1-.1-.1-.1-.2V45c0-.1 0-.2.1-.2.1-.1.1-.1.2-.1h3.1c.1 0 .2 0 .2.1.1.1.1.1.1.2v1.4c0 .7-.2 1.3-.5 1.9-.3.5-.8.9-1.4 1.2-.5.3-1.1.5-1.9.5zm7.6-.2c-.1 0-.2 0-.2-.1-.1-.1-.1-.1-.1-.2v-8.6c0-.1 0-.2.1-.2.1-.1.1-.1.2-.1h3.4c1.1 0 1.9.2 2.5.7.6.5.9 1.2.9 2.1 0 .6-.2 1.2-.5 1.6-.3.4-.7.7-1.3.9l1.9 3.3v.1c0 .1 0 .1-.1.2.1.2 0 .2-.1.2h-1.2c-.1 0-.2 0-.3-.1-.1-.1-.1-.1-.2-.3l-1.7-3.1h-1.8v3.1c0 .1 0 .2-.1.2 0 .2-.1.2-.2.2h-1.2zm3.4-4.9c.5 0 .9-.1 1.2-.3.3-.2.4-.6.4-1s-.1-.8-.4-1c-.3-.2-.6-.4-1.2-.4h-1.8v2.7h1.8zm6.3 4.9c-.1 0-.1 0-.2-.1s-.1-.1-.1-.2v-.1l3.1-8.5c.1-.2.2-.3.5-.3h1.4c.2 0 .4.1.5.3l3.1 8.5v.1c0 .1 0 .1-.1.2.1.1 0 .1-.1.1h-1.2c-.2 0-.3-.1-.4-.2l-.6-1.6h-3.9l-.6 1.6c-.1.2-.2.2-.4.2h-1zm2.6-3.3h2.9l-1.5-4.1-1.4 4.1zm9.2 3.3c-.1 0-.2 0-.2-.1-.1-.1-.1-.1-.1-.2v-8.6c0-.1 0-.2.1-.2.1-.1.1-.1.2-.1h1.1c.2 0 .3.1.4.2l2.5 4.8 2.5-4.8c.1-.2.2-.2.4-.2h1c.1 0 .2 0 .2.1.1.1.1.1.1.2v8.6c0 .1 0 .2-.1.2 0 .1-.1.1-.2.1h-1.1c-.1 0-.2 0-.2-.1-.1-.1-.1-.1-.1-.2v-5.7l-1.8 3.4c-.1.2-.2.3-.4.3h-.6c-.2 0-.3-.1-.4-.3l-1.8-3.4v5.7c0 .1 0 .2-.1.2-.1.1-.2.1-.3.1h-1.1zm15.3.2c-.8 0-1.4-.1-2-.4-.6-.2-1-.5-1.3-.9s-.4-.8-.5-1.2c0-.1 0-.1.1-.2s.1-.1.2-.1h1.2c.1 0 .2 0 .2.1.1 0 .1.1.2.2.1.3.3.5.6.7.3.2.7.3 1.3.3.6 0 1.1-.1 1.4-.3.3-.2.5-.5.5-.8 0-.2-.1-.4-.2-.6-.2-.2-.4-.3-.7-.4-.3-.1-.8-.3-1.4-.4-1-.2-1.8-.6-2.2-1-.5-.4-.7-1-.7-1.7 0-.5.1-1 .4-1.3.3-.4.7-.7 1.2-.9.5-.2 1.1-.3 1.8-.3s1.3.1 1.9.4c.5.3.9.6 1.2.9.3.4.4.8.4 1.1 0 .1 0 .1-.1.2s-.1.1-.2.1h-1.2c-.2 0-.3-.1-.4-.2 0-.3-.2-.5-.5-.7-.3-.2-.7-.3-1.1-.3-.5 0-.9.1-1.1.3-.3.2-.4.4-.4.8 0 .2.1.4.2.6.1.2.4.3.7.4.3.1.7.2 1.3.4.8.2 1.4.4 1.8.6.4.2.8.5 1 .8.2.3.3.7.3 1.3 0 .6-.2 1.1-.5 1.5-.3.4-.7.7-1.3.9-.7-.1-1.3.1-2.1.1z"/><g id="Group-2" transform="translate(1)"><path id="Fill-12" class="st0" d="M69.7 33h9.5L64.9-.1h-9.5L69.7 33"/><path id="Fill-14" class="st0" d="M50.5 33H41L55.3-.1h9.5L50.5 33"/><path id="Fill-15" class="st0" d="M98.5 33h9.5L93.7-.1h-9.5L98.5 33"/><path id="Fill-17" class="st0" d="M79.3 33h-9.5L84.1-.1h9.5L79.3 33"/><path id="Fill-18" class="st0" d="M127.2 33h9.5L122.4-.1h-9.5L127.2 33"/><path id="Fill-20" class="st0" d="M108 33h-9.5L112.8-.1h9.5L108 33"/></g></g></g></svg>