<svg id="Layer_1" xmlns="http://www.w3.org/2000/svg" width="180" height="50"><style>.st0{fill:#2c2f38}</style><g id="Page-1"><g id="Logo-example-6"><path id="Fill-170" class="st0" d="M58.5 49.8h18.3L58.5-.1H40.3L22 49.8h9.1l-3.9-10.6L41 1.8l17.5 48"/><path id="Brand-Name" class="st0" d="M98.4 15.3c.7.3 1.3.6 1.7 1.2.4.5.6 1.2.6 1.9 0 1.1-.4 2-1.3 2.6-.9.6-2.2.9-3.8.9h-6.8V9.3h6.4c1.6 0 2.8.3 3.7.9.8.6 1.3 1.4 1.3 2.4 0 .6-.1 1.1-.4 1.6-.4.5-.8.9-1.4 1.1zm-6.2-3.4v2.4h2.4c1.2 0 1.8-.4 1.8-1.2 0-.8-.6-1.2-1.8-1.2h-2.4zm3 7.5c1.2 0 1.9-.4 1.9-1.3s-.6-1.3-1.9-1.3h-3v2.6h3zm12.9-.7h-1.9V22h-3.6V9.3h5.8c1.1 0 2.1.2 3 .6s1.5.9 1.9 1.6c.4.7.7 1.5.7 2.5 0 .9-.2 1.7-.6 2.4-.4.7-1 1.2-1.8 1.6l2.7 4h-3.8l-2.4-3.3zm2.3-4.7c0-.6-.2-1-.6-1.4-.4-.3-.9-.5-1.7-.5h-2v3.7h2c.7 0 1.3-.2 1.7-.5.4-.3.6-.7.6-1.3zm14.1 5.6h-5.3l-1 2.4h-3.6l5.6-12.7h3.5l5.6 12.7h-3.7l-1.1-2.4zm-1.1-2.7l-1.6-4-1.6 4h3.2zm18.9-7.6V22h-2.9l-5.6-6.7V22h-3.5V9.3h2.9l5.6 6.7V9.3h3.5zm2.5 0h6c1.4 0 2.6.3 3.7.8s1.9 1.2 2.5 2.2c.6 1 .9 2.1.9 3.3s-.3 2.4-.9 3.3c-.6.9-1.4 1.7-2.5 2.2-1.1.5-2.3.8-3.7.8h-6V9.3zm5.9 9.9c1.1 0 1.9-.3 2.6-.9s1-1.5 1-2.5-.3-1.9-1-2.5c-.7-.6-1.5-.9-2.6-.9h-2.3v6.9h2.3v-.1zm-50.3 9.2v12.7h-1.9l-7-8.6v8.6h-2.3V28.4H91l6.9 8.6v-8.6h2.5zm11.5 9.8h-6.3l-1.2 2.9H102l5.7-12.7h2.3l5.7 12.7h-2.4l-1.4-2.9zm-.7-1.9l-2.4-5.5-2.4 5.5h4.8zm17.7 4.8v-8.5l-4.1 6.9h-1l-4.2-6.7V41h-2.2V28.4h1.9l5 8.5 4.9-8.5h1.9v12.7h-2.2zm15.2-2v2h-9.5V28.4h9.3v2H137v3.3h6.1v1.9H137V39h7.1z"/></g></g></svg>